<svg xmlns="http://www.w3.org/2000/svg" xmlns:xlink="http://www.w3.org/1999/xlink" width="1000" zoomAndPan="magnify" viewBox="0 0 750 749.999995" height="1000" preserveAspectRatio="xMidYMid meet" version="1.0"><defs><g/><clipPath id="227883580b"><path d="M 276.644531 0.222656 L 321 0.222656 L 321 93.410156 L 276.644531 93.410156 Z M 276.644531 0.222656 " clip-rule="nonzero"/></clipPath><clipPath id="53da9d8c0c"><path d="M 323 0.222656 L 367.394531 0.222656 L 367.394531 93.410156 L 323 93.410156 Z M 323 0.222656 " clip-rule="nonzero"/></clipPath><clipPath id="f669dee49b"><path d="M 6 176 L 643 176 L 643 217.679688 L 6 217.679688 Z M 6 176 " clip-rule="nonzero"/></clipPath><clipPath id="3e11f89a7b"><rect x="0" width="637" y="0" height="42"/></clipPath><clipPath id="8e69caa6ca"><rect x="0" width="660" y="0" height="218"/></clipPath></defs><g transform="matrix(1, 0, 0, 1, 53, 264)"><g clip-path="url(#8e69caa6ca)"><path fill="#008cba" d="M 312.140625 51.066406 L 321.992188 56.75 L 331.855469 51.066406 L 331.855469 40.597656 L 321.992188 34.902344 L 312.140625 40.597656 Z M 312.140625 51.066406 " fill-opacity="1" fill-rule="evenodd"/><g clip-path="url(#227883580b)"><path fill="#008cba" d="M 320.601562 59.175781 L 309.34375 52.679688 L 309.34375 38.984375 L 320.601562 32.476562 L 320.601562 5.949219 L 310.679688 0.226562 L 300.351562 6.191406 L 300.351562 17.855469 C 301.628906 18.375 302.523438 19.628906 302.523438 21.09375 C 302.523438 23.019531 300.957031 24.585938 299.03125 24.585938 C 297.101562 24.585938 295.535156 23.019531 295.535156 21.09375 C 295.535156 19.6875 296.359375 18.480469 297.554688 17.925781 L 297.554688 7.804688 L 288.433594 13.074219 L 288.433594 25.757812 L 298.972656 31.847656 L 309.34375 25.859375 L 309.34375 14.871094 C 308.171875 14.316406 307.359375 13.121094 307.359375 11.726562 C 307.359375 9.800781 308.925781 8.234375 310.855469 8.234375 C 312.78125 8.234375 314.347656 9.800781 314.347656 11.726562 C 314.347656 13.203125 313.429688 14.464844 312.140625 14.976562 L 312.140625 27.472656 L 300.351562 34.273438 L 300.351562 46.621094 C 301.582031 47.167969 302.441406 48.394531 302.441406 49.824219 C 302.441406 51.75 300.886719 53.316406 298.949219 53.316406 C 297.023438 53.316406 295.46875 51.75 295.46875 49.824219 C 295.46875 48.394531 296.324219 47.167969 297.554688 46.621094 L 297.554688 34.261719 L 287.238281 28.308594 L 276.644531 34.425781 L 276.644531 44.707031 L 286.855469 38.8125 L 286.84375 38.578125 C 286.84375 36.652344 288.410156 35.085938 290.339844 35.085938 C 292.265625 35.085938 293.832031 36.652344 293.832031 38.578125 C 293.832031 40.503906 292.265625 42.070312 290.339844 42.070312 C 289.503906 42.070312 288.738281 41.78125 288.144531 41.292969 L 276.644531 47.933594 L 276.644531 59.535156 L 287.238281 65.652344 L 296.011719 60.59375 L 287.949219 55.9375 C 287.320312 56.519531 286.484375 56.867188 285.570312 56.867188 C 283.640625 56.867188 282.074219 55.300781 282.074219 53.375 C 282.074219 51.449219 283.640625 49.882812 285.570312 49.882812 C 287.496094 49.882812 289.050781 51.4375 289.0625 53.351562 L 312.140625 66.671875 L 312.140625 81.222656 C 313.417969 81.746094 314.324219 83 314.324219 84.460938 C 314.324219 86.386719 312.757812 87.953125 310.832031 87.953125 C 308.90625 87.953125 307.339844 86.386719 307.339844 84.460938 C 307.339844 83.070312 308.160156 81.863281 309.34375 81.304688 L 309.34375 68.285156 L 298.808594 62.207031 L 288.433594 68.203125 L 288.433594 80.492188 L 297.554688 85.761719 L 297.554688 74.097656 C 296.324219 73.566406 295.46875 72.335938 295.46875 70.910156 C 295.46875 68.980469 297.035156 67.414062 298.960938 67.414062 C 300.886719 67.414062 302.453125 68.980469 302.453125 70.910156 C 302.453125 72.335938 301.582031 73.578125 300.351562 74.109375 L 300.351562 87.375 L 310.933594 93.488281 L 320.601562 87.90625 Z M 320.601562 59.175781 " fill-opacity="1" fill-rule="evenodd"/></g><g clip-path="url(#53da9d8c0c)"><path fill="#1e3a8a" d="M 323.398438 59.175781 L 323.398438 87.90625 L 333.050781 93.488281 L 343.648438 87.375 L 343.648438 74.109375 C 342.40625 73.578125 341.546875 72.335938 341.546875 70.910156 C 341.546875 68.980469 343.101562 67.414062 345.027344 67.414062 C 346.964844 67.414062 348.519531 68.980469 348.519531 70.910156 C 348.519531 72.335938 347.660156 73.566406 346.445312 74.097656 L 346.445312 85.761719 L 355.5625 80.492188 L 355.5625 68.203125 L 345.191406 62.207031 L 334.652344 68.285156 L 334.652344 81.304688 C 335.835938 81.863281 336.648438 83.070312 336.648438 84.460938 C 336.648438 86.386719 335.09375 87.953125 333.15625 87.953125 C 331.230469 87.953125 329.675781 86.386719 329.675781 84.460938 C 329.675781 83 330.582031 81.746094 331.855469 81.222656 L 331.855469 66.671875 L 354.9375 53.351562 C 354.949219 51.4375 356.503906 49.882812 358.417969 49.882812 C 360.355469 49.882812 361.910156 51.449219 361.910156 53.375 C 361.910156 55.300781 360.355469 56.867188 358.417969 56.867188 C 357.503906 56.867188 356.679688 56.519531 356.050781 55.9375 L 347.988281 60.59375 L 356.746094 65.652344 L 367.355469 59.535156 L 367.355469 47.933594 L 355.855469 41.292969 C 355.25 41.78125 354.484375 42.070312 353.660156 42.070312 C 351.734375 42.070312 350.167969 40.503906 350.167969 38.578125 C 350.167969 36.652344 351.734375 35.085938 353.660156 35.085938 C 355.585938 35.085938 357.152344 36.652344 357.152344 38.578125 L 357.140625 38.8125 L 367.355469 44.707031 L 367.355469 34.425781 L 356.746094 28.308594 L 346.445312 34.261719 L 346.445312 46.621094 C 347.671875 47.167969 348.53125 48.394531 348.53125 49.824219 C 348.53125 51.75 346.964844 53.316406 345.039062 53.316406 C 343.113281 53.316406 341.546875 51.75 341.546875 49.824219 C 341.546875 48.394531 342.40625 47.167969 343.648438 46.621094 L 343.648438 34.273438 L 331.855469 27.472656 L 331.855469 14.976562 C 330.570312 14.464844 329.652344 13.203125 329.652344 11.726562 C 329.652344 9.800781 331.21875 8.234375 333.144531 8.234375 C 335.070312 8.234375 336.636719 9.800781 336.636719 11.726562 C 336.636719 13.121094 335.824219 14.316406 334.652344 14.871094 L 334.652344 25.859375 L 345.027344 31.847656 L 355.5625 25.757812 L 355.5625 13.074219 L 346.445312 7.804688 L 346.445312 17.925781 C 347.628906 18.480469 348.449219 19.6875 348.449219 21.09375 C 348.449219 23.019531 346.882812 24.585938 344.957031 24.585938 C 343.03125 24.585938 341.464844 23.019531 341.464844 21.09375 C 341.464844 19.628906 342.371094 18.375 343.648438 17.855469 L 343.648438 6.191406 L 333.308594 0.226562 L 323.398438 5.949219 L 323.398438 32.476562 L 334.652344 38.984375 L 334.652344 52.679688 Z M 323.398438 59.175781 " fill-opacity="1" fill-rule="evenodd"/></g><g clip-path="url(#f669dee49b)"><g transform="matrix(1, 0, 0, 1, 6, 176)"><g clip-path="url(#3e11f89a7b)"><g fill="#008cba" fill-opacity="1"><g transform="translate(1.570337, 33.373701)"><g><path d="M 28.78125 0 C 31.164062 0 33.207031 -0.847656 34.90625 -2.546875 C 36.601562 -4.242188 37.453125 -6.289062 37.453125 -8.6875 L 37.453125 -19.3125 C 37.453125 -21.707031 36.601562 -23.753906 34.90625 -25.453125 C 33.207031 -27.148438 31.164062 -28 28.78125 -28 L 3.90625 -28 L 3.90625 0 Z M 28.78125 -3.46875 L 7.375 -3.46875 L 7.375 -24.515625 L 28.78125 -24.515625 C 30.21875 -24.515625 31.441406 -24.003906 32.453125 -22.984375 C 33.472656 -21.960938 33.984375 -20.738281 33.984375 -19.3125 L 33.984375 -8.6875 C 33.984375 -7.25 33.472656 -6.019531 32.453125 -5 C 31.441406 -3.976562 30.21875 -3.46875 28.78125 -3.46875 Z M 28.78125 -3.46875 "/></g></g></g><g fill="#008cba" fill-opacity="1"><g transform="translate(48.135973, 33.373701)"><g><path d="M 7.375 0 L 7.375 -27.96875 L 3.90625 -27.96875 L 3.90625 0 Z M 7.375 0 "/></g></g></g><g fill="#008cba" fill-opacity="1"><g transform="translate(65.602354, 33.373701)"><g><path d="M 27.796875 0 C 30.128906 0 32.175781 -0.84375 33.9375 -2.53125 C 35.601562 -4.25 36.453125 -6.300781 36.484375 -8.6875 L 36.484375 -11.671875 C 36.484375 -12.421875 36.210938 -13.0625 35.671875 -13.59375 C 35.140625 -14.125 34.5 -14.390625 33.75 -14.390625 L 19.703125 -14.390625 L 19.703125 -10.921875 L 33.015625 -10.921875 L 33.015625 -8.6875 C 33.015625 -7.289062 32.503906 -6.0625 31.484375 -5 C 30.421875 -3.976562 29.191406 -3.46875 27.796875 -3.46875 L 11.609375 -3.46875 C 10.179688 -3.46875 8.957031 -3.976562 7.9375 -5 C 6.914062 -6.019531 6.40625 -7.25 6.40625 -8.6875 L 6.40625 -19.3125 C 6.40625 -20.738281 6.914062 -21.960938 7.9375 -22.984375 C 8.957031 -24.003906 10.179688 -24.515625 11.609375 -24.515625 L 27.796875 -24.515625 C 29.242188 -24.515625 30.472656 -24.003906 31.484375 -22.984375 C 32.503906 -21.960938 33.015625 -20.738281 33.015625 -19.3125 L 36.484375 -19.3125 C 36.484375 -21.707031 35.632812 -23.753906 33.9375 -25.453125 C 32.238281 -27.148438 30.191406 -28 27.796875 -28 L 11.609375 -28 C 9.210938 -28 7.164062 -27.148438 5.46875 -25.453125 C 3.769531 -23.753906 2.921875 -21.707031 2.921875 -19.3125 L 2.921875 -8.6875 C 2.921875 -6.289062 3.769531 -4.242188 5.46875 -2.546875 C 7.164062 -0.847656 9.210938 0 11.609375 0 Z M 27.796875 0 "/></g></g></g><g fill="#008cba" fill-opacity="1"><g transform="translate(111.192813, 33.373701)"><g><path d="M 7.375 0 L 7.375 -27.96875 L 3.90625 -27.96875 L 3.90625 0 Z M 7.375 0 "/></g></g></g><g fill="#008cba" fill-opacity="1"><g transform="translate(128.659194, 33.373701)"><g><path d="M 17.828125 0 L 14.359375 0 L 14.359375 -24.5 L 0.578125 -24.5 L 0.578125 -27.96875 L 31.609375 -27.96875 L 31.609375 -24.5 L 17.828125 -24.5 Z M 17.828125 0 "/></g></g></g><g fill="#008cba" fill-opacity="1"><g transform="translate(167.033351, 33.373701)"><g><path d="M 40.25 0 L 36.046875 0 L 31.78125 -6.328125 L 9.03125 -6.328125 L 4.78125 0 L 0.578125 0 L 19.484375 -27.96875 L 21.328125 -27.96875 Z M 29.4375 -9.796875 L 20.40625 -23.140625 L 11.390625 -9.796875 Z M 29.4375 -9.796875 "/></g></g></g><g fill="#008cba" fill-opacity="1"><g transform="translate(214.04758, 33.373701)"><g><path d="M 30 0 L 30 -3.46875 L 7.375 -3.46875 L 7.375 -28 L 3.90625 -28 L 3.90625 0 Z M 30 0 "/></g></g></g><g fill="#008cba" fill-opacity="1"><g transform="translate(251.602589, 33.373701)"><g/></g></g><g fill="#008cba" fill-opacity="1"><g transform="translate(267.703723, 33.373701)"><g><path d="M 30.125 0 L 9.28125 0 C 7.53125 0 6.03125 -0.617188 4.78125 -1.859375 C 3.539062 -3.097656 2.921875 -4.597656 2.921875 -6.359375 L 6.40625 -6.359375 C 6.40625 -5.566406 6.6875 -4.882812 7.25 -4.3125 C 7.8125 -3.75 8.488281 -3.46875 9.28125 -3.46875 L 30.125 -3.46875 C 30.914062 -3.46875 31.59375 -3.75 32.15625 -4.3125 C 32.726562 -4.882812 33.015625 -5.566406 33.015625 -6.359375 L 33.015625 -9.359375 C 33.015625 -10.148438 32.726562 -10.828125 32.15625 -11.390625 C 31.59375 -11.960938 30.914062 -12.25 30.125 -12.25 L 9.28125 -12.25 C 7.53125 -12.25 6.03125 -12.867188 4.78125 -14.109375 C 3.539062 -15.359375 2.921875 -16.859375 2.921875 -18.609375 L 2.921875 -21.609375 C 2.921875 -23.367188 3.539062 -24.867188 4.78125 -26.109375 C 6.03125 -27.347656 7.53125 -27.96875 9.28125 -27.96875 L 30.125 -27.96875 C 31.875 -27.96875 33.367188 -27.347656 34.609375 -26.109375 C 35.859375 -24.867188 36.484375 -23.367188 36.484375 -21.609375 L 33.015625 -21.609375 C 33.015625 -22.410156 32.726562 -23.09375 32.15625 -23.65625 C 31.59375 -24.21875 30.914062 -24.5 30.125 -24.5 L 9.28125 -24.5 C 8.488281 -24.5 7.8125 -24.21875 7.25 -23.65625 C 6.6875 -23.09375 6.40625 -22.410156 6.40625 -21.609375 L 6.40625 -18.609375 C 6.40625 -17.816406 6.6875 -17.132812 7.25 -16.5625 C 7.8125 -16 8.488281 -15.71875 9.28125 -15.71875 L 30.125 -15.71875 C 31.875 -15.71875 33.367188 -15.097656 34.609375 -13.859375 C 35.859375 -12.617188 36.484375 -11.117188 36.484375 -9.359375 L 36.484375 -6.359375 C 36.484375 -4.597656 35.859375 -3.097656 34.609375 -1.859375 C 33.367188 -0.617188 31.875 0 30.125 0 Z M 30.125 0 "/></g></g></g><g fill="#008cba" fill-opacity="1"><g transform="translate(313.294183, 33.373701)"><g><path d="M 27.796875 0 C 30.191406 0 32.238281 -0.847656 33.9375 -2.546875 C 35.632812 -4.242188 36.484375 -6.289062 36.484375 -8.6875 L 36.484375 -19.3125 C 36.484375 -21.707031 35.632812 -23.753906 33.9375 -25.453125 C 32.238281 -27.148438 30.191406 -28 27.796875 -28 L 11.609375 -28 C 9.210938 -28 7.164062 -27.148438 5.46875 -25.453125 C 3.769531 -23.753906 2.921875 -21.707031 2.921875 -19.3125 L 2.921875 -8.6875 C 2.921875 -6.289062 3.769531 -4.242188 5.46875 -2.546875 C 7.164062 -0.847656 9.210938 0 11.609375 0 Z M 27.796875 -3.46875 L 11.609375 -3.46875 C 10.179688 -3.46875 8.957031 -3.976562 7.9375 -5 C 6.914062 -6.019531 6.40625 -7.25 6.40625 -8.6875 L 6.40625 -19.3125 C 6.40625 -20.738281 6.914062 -21.960938 7.9375 -22.984375 C 8.957031 -24.003906 10.179688 -24.515625 11.609375 -24.515625 L 27.796875 -24.515625 C 29.242188 -24.515625 30.472656 -24.003906 31.484375 -22.984375 C 32.503906 -21.960938 33.015625 -20.738281 33.015625 -19.3125 L 33.015625 -8.6875 C 33.015625 -7.25 32.503906 -6.019531 31.484375 -5 C 30.472656 -3.976562 29.242188 -3.46875 27.796875 -3.46875 Z M 27.796875 -3.46875 "/></g></g></g><g fill="#008cba" fill-opacity="1"><g transform="translate(358.884642, 33.373701)"><g><path d="M 30 0 L 30 -3.46875 L 7.375 -3.46875 L 7.375 -28 L 3.90625 -28 L 3.90625 0 Z M 30 0 "/></g></g></g><g fill="#008cba" fill-opacity="1"><g transform="translate(396.439651, 33.373701)"><g><path d="M 27.796875 0 C 30.191406 0 32.238281 -0.847656 33.9375 -2.546875 C 35.632812 -4.242188 36.484375 -6.289062 36.484375 -8.6875 L 36.484375 -28 L 33.015625 -28 L 33.015625 -8.6875 C 33.015625 -7.25 32.503906 -6.019531 31.484375 -5 C 30.472656 -3.976562 29.242188 -3.46875 27.796875 -3.46875 L 11.609375 -3.46875 C 10.179688 -3.46875 8.957031 -3.976562 7.9375 -5 C 6.914062 -6.019531 6.40625 -7.25 6.40625 -8.6875 L 6.40625 -28 L 2.921875 -28 L 2.921875 -8.6875 C 2.921875 -6.289062 3.769531 -4.242188 5.46875 -2.546875 C 7.164062 -0.847656 9.210938 0 11.609375 0 Z M 27.796875 0 "/></g></g></g><g fill="#008cba" fill-opacity="1"><g transform="translate(442.03011, 33.373701)"><g><path d="M 17.828125 0 L 14.359375 0 L 14.359375 -24.5 L 0.578125 -24.5 L 0.578125 -27.96875 L 31.609375 -27.96875 L 31.609375 -24.5 L 17.828125 -24.5 Z M 17.828125 0 "/></g></g></g><g fill="#008cba" fill-opacity="1"><g transform="translate(480.404267, 33.373701)"><g><path d="M 7.375 0 L 7.375 -27.96875 L 3.90625 -27.96875 L 3.90625 0 Z M 7.375 0 "/></g></g></g><g fill="#008cba" fill-opacity="1"><g transform="translate(497.870648, 33.373701)"><g><path d="M 27.796875 0 C 30.191406 0 32.238281 -0.847656 33.9375 -2.546875 C 35.632812 -4.242188 36.484375 -6.289062 36.484375 -8.6875 L 36.484375 -19.3125 C 36.484375 -21.707031 35.632812 -23.753906 33.9375 -25.453125 C 32.238281 -27.148438 30.191406 -28 27.796875 -28 L 11.609375 -28 C 9.210938 -28 7.164062 -27.148438 5.46875 -25.453125 C 3.769531 -23.753906 2.921875 -21.707031 2.921875 -19.3125 L 2.921875 -8.6875 C 2.921875 -6.289062 3.769531 -4.242188 5.46875 -2.546875 C 7.164062 -0.847656 9.210938 0 11.609375 0 Z M 27.796875 -3.46875 L 11.609375 -3.46875 C 10.179688 -3.46875 8.957031 -3.976562 7.9375 -5 C 6.914062 -6.019531 6.40625 -7.25 6.40625 -8.6875 L 6.40625 -19.3125 C 6.40625 -20.738281 6.914062 -21.960938 7.9375 -22.984375 C 8.957031 -24.003906 10.179688 -24.515625 11.609375 -24.515625 L 27.796875 -24.515625 C 29.242188 -24.515625 30.472656 -24.003906 31.484375 -22.984375 C 32.503906 -21.960938 33.015625 -20.738281 33.015625 -19.3125 L 33.015625 -8.6875 C 33.015625 -7.25 32.503906 -6.019531 31.484375 -5 C 30.472656 -3.976562 29.242188 -3.46875 27.796875 -3.46875 Z M 27.796875 -3.46875 "/></g></g></g><g fill="#008cba" fill-opacity="1"><g transform="translate(543.461132, 33.373701)"><g><path d="M 37.453125 0 L 35.09375 0 L 7.375 -22.59375 L 7.375 0 L 3.90625 0 L 3.90625 -27.96875 L 6.265625 -27.96875 L 33.984375 -5.390625 L 33.984375 -27.96875 L 37.453125 -27.96875 Z M 37.453125 0 "/></g></g></g><g fill="#008cba" fill-opacity="1"><g transform="translate(591.001918, 33.373701)"><g><path d="M 30.125 0 L 9.28125 0 C 7.53125 0 6.03125 -0.617188 4.78125 -1.859375 C 3.539062 -3.097656 2.921875 -4.597656 2.921875 -6.359375 L 6.40625 -6.359375 C 6.40625 -5.566406 6.6875 -4.882812 7.25 -4.3125 C 7.8125 -3.75 8.488281 -3.46875 9.28125 -3.46875 L 30.125 -3.46875 C 30.914062 -3.46875 31.59375 -3.75 32.15625 -4.3125 C 32.726562 -4.882812 33.015625 -5.566406 33.015625 -6.359375 L 33.015625 -9.359375 C 33.015625 -10.148438 32.726562 -10.828125 32.15625 -11.390625 C 31.59375 -11.960938 30.914062 -12.25 30.125 -12.25 L 9.28125 -12.25 C 7.53125 -12.25 6.03125 -12.867188 4.78125 -14.109375 C 3.539062 -15.359375 2.921875 -16.859375 2.921875 -18.609375 L 2.921875 -21.609375 C 2.921875 -23.367188 3.539062 -24.867188 4.78125 -26.109375 C 6.03125 -27.347656 7.53125 -27.96875 9.28125 -27.96875 L 30.125 -27.96875 C 31.875 -27.96875 33.367188 -27.347656 34.609375 -26.109375 C 35.859375 -24.867188 36.484375 -23.367188 36.484375 -21.609375 L 33.015625 -21.609375 C 33.015625 -22.410156 32.726562 -23.09375 32.15625 -23.65625 C 31.59375 -24.21875 30.914062 -24.5 30.125 -24.5 L 9.28125 -24.5 C 8.488281 -24.5 7.8125 -24.21875 7.25 -23.65625 C 6.6875 -23.09375 6.40625 -22.410156 6.40625 -21.609375 L 6.40625 -18.609375 C 6.40625 -17.816406 6.6875 -17.132812 7.25 -16.5625 C 7.8125 -16 8.488281 -15.71875 9.28125 -15.71875 L 30.125 -15.71875 C 31.875 -15.71875 33.367188 -15.097656 34.609375 -13.859375 C 35.859375 -12.617188 36.484375 -11.117188 36.484375 -9.359375 L 36.484375 -6.359375 C 36.484375 -4.597656 35.859375 -3.097656 34.609375 -1.859375 C 33.367188 -0.617188 31.875 0 30.125 0 Z M 30.125 0 "/></g></g></g></g></g></g><g fill="#ffffff" fill-opacity="1"><g transform="translate(0.135933, 169.379999)"><g><path d="M 17.359375 0 L 8.109375 0 L 8.109375 -58.15625 L 72.78125 -58.15625 L 72.78125 -48.9375 L 17.359375 -48.9375 L 17.359375 -33.703125 L 66.21875 -33.703125 L 66.21875 -24.453125 L 17.359375 -24.453125 Z M 17.359375 0 "/></g></g><g transform="translate(79.006725, 169.379999)"><g><path d="M 61.359375 0 L 61.359375 -9.25 L 17.359375 -9.25 L 17.359375 -58.15625 L 8.109375 -58.15625 L 8.109375 0 Z M 61.359375 0 "/></g></g><g transform="translate(143.198224, 169.379999)"><g><path d="M 56.890625 0 C 62.003906 0 66.363281 -1.800781 69.96875 -5.40625 C 73.582031 -9.019531 75.390625 -13.378906 75.390625 -18.484375 L 75.390625 -39.703125 C 75.390625 -44.785156 73.582031 -49.128906 69.96875 -52.734375 C 66.363281 -56.347656 62.003906 -58.15625 56.890625 -58.15625 L 24.578125 -58.15625 C 19.460938 -58.15625 15.097656 -56.347656 11.484375 -52.734375 C 7.878906 -49.128906 6.078125 -44.785156 6.078125 -39.703125 L 6.078125 -18.484375 C 6.078125 -13.378906 7.878906 -9.019531 11.484375 -5.40625 C 15.097656 -1.800781 19.460938 0 24.578125 0 Z M 56.890625 -9.25 L 24.578125 -9.25 C 22.003906 -9.25 19.816406 -10.144531 18.015625 -11.9375 C 16.222656 -13.738281 15.328125 -15.921875 15.328125 -18.484375 L 15.328125 -39.703125 C 15.328125 -42.242188 16.222656 -44.414062 18.015625 -46.21875 C 19.816406 -48.03125 22.003906 -48.9375 24.578125 -48.9375 L 56.890625 -48.9375 C 59.429688 -48.9375 61.609375 -48.03125 63.421875 -46.21875 C 65.234375 -44.414062 66.140625 -42.242188 66.140625 -39.703125 L 66.140625 -18.484375 C 66.140625 -15.921875 65.234375 -13.738281 63.421875 -11.9375 C 61.609375 -10.144531 59.429688 -9.25 56.890625 -9.25 Z M 56.890625 -9.25 "/></g></g></g><g fill="#ffffff" fill-opacity="1"><g transform="translate(218.581663, 169.379999)"><g><path d="M 83.296875 0 L 77.484375 0 L 55.84375 -43.21875 L 34.1875 0 L 28.421875 0 L 1.21875 -58.15625 L 11.390625 -58.15625 L 31.46875 -15.203125 L 53 -58.15625 L 58.71875 -58.15625 L 80.203125 -15.203125 L 100.328125 -58.15625 L 110.546875 -58.15625 Z M 83.296875 0 "/></g></g><g transform="translate(330.33894, 169.379999)"><g><path d="M 36.78125 0 L 27.53125 0 L 27.53125 -48.9375 L 1.21875 -48.9375 L 1.21875 -58.15625 L 63.140625 -58.15625 L 63.140625 -48.9375 L 36.78125 -48.9375 Z M 36.78125 0 "/></g></g><g transform="translate(394.692641, 169.379999)"><g><path d="M 72.78125 0 L 8.109375 0 L 8.109375 -58.15625 L 72.78125 -58.15625 L 72.78125 -48.9375 L 17.359375 -48.9375 L 17.359375 -33.703125 L 66.21875 -33.703125 L 66.21875 -24.453125 L 17.359375 -24.453125 L 17.359375 -9.25 L 72.78125 -9.25 Z M 72.78125 0 "/></g></g><g transform="translate(473.563433, 169.379999)"><g><path d="M 56.890625 0 C 62.003906 0 66.363281 -1.800781 69.96875 -5.40625 C 73.582031 -9.019531 75.390625 -13.378906 75.390625 -18.484375 L 66.140625 -18.484375 C 66.140625 -15.921875 65.234375 -13.738281 63.421875 -11.9375 C 61.609375 -10.144531 59.429688 -9.25 56.890625 -9.25 L 24.578125 -9.25 C 22.003906 -9.25 19.816406 -10.144531 18.015625 -11.9375 C 16.222656 -13.738281 15.328125 -15.921875 15.328125 -18.484375 L 15.328125 -39.703125 C 15.328125 -42.242188 16.222656 -44.414062 18.015625 -46.21875 C 19.816406 -48.03125 22.003906 -48.9375 24.578125 -48.9375 L 56.890625 -48.9375 C 59.429688 -48.9375 61.609375 -48.03125 63.421875 -46.21875 C 65.234375 -44.414062 66.140625 -42.242188 66.140625 -39.703125 L 75.390625 -39.703125 C 75.390625 -44.785156 73.582031 -49.128906 69.96875 -52.734375 C 66.363281 -56.347656 62.003906 -58.15625 56.890625 -58.15625 L 24.578125 -58.15625 C 19.460938 -58.15625 15.097656 -56.347656 11.484375 -52.734375 C 7.878906 -49.128906 6.078125 -44.785156 6.078125 -39.703125 L 6.078125 -18.484375 C 6.078125 -13.378906 7.878906 -9.019531 11.484375 -5.40625 C 15.097656 -1.800781 19.460938 0 24.578125 0 Z M 56.890625 0 "/></g></g></g><g fill="#ffffff" fill-opacity="1"><g transform="translate(555.029471, 169.379999)"><g><path d="M 75.546875 0 L 66.296875 0 L 66.296875 -24.5 L 17.359375 -24.5 L 17.359375 0 L 8.109375 0 L 8.109375 -58.15625 L 17.359375 -58.15625 L 17.359375 -33.703125 L 66.296875 -33.703125 L 66.296875 -58.15625 L 75.546875 -58.15625 Z M 75.546875 0 "/></g></g></g><g fill="#ffffff" fill-opacity="1"><g transform="translate(638.687664, 169.379999)"><g/></g></g></g></g></svg>