<svg xmlns="http://www.w3.org/2000/svg" xmlns:xlink="http://www.w3.org/1999/xlink" width="1000" zoomAndPan="magnify" viewBox="0 0 750 749.999995" height="1000" preserveAspectRatio="xMidYMid meet" version="1.0"><defs><g/><clipPath id="3d7937ff80"><path d="M 1.03125 2.167969 L 43 2.167969 L 43 90.105469 L 1.03125 90.105469 Z M 1.03125 2.167969 " clip-rule="nonzero"/></clipPath><clipPath id="09b6989363"><path d="M 45 2.167969 L 86.53125 2.167969 L 86.53125 90.105469 L 45 90.105469 Z M 45 2.167969 " clip-rule="nonzero"/></clipPath><clipPath id="71aeae734d"><rect x="0" width="469" y="0" height="32"/></clipPath><clipPath id="6cd87d7feb"><path d="M 96 0.640625 L 578.121094 0.640625 L 578.121094 64 L 96 64 Z M 96 0.640625 " clip-rule="nonzero"/></clipPath><clipPath id="a43bb2dd1e"><rect x="0" width="483" y="0" height="64"/></clipPath><clipPath id="d0687f1b22"><rect x="0" width="579" y="0" height="91"/></clipPath></defs><g transform="matrix(1, 0, 0, 1, 85, 332)"><g clip-path="url(#d0687f1b22)"><path fill="#008cba" d="M 34.46875 50.058594 L 43.746094 55.414062 L 53.039062 50.058594 L 53.039062 40.199219 L 43.746094 34.832031 L 34.46875 40.199219 Z M 34.46875 50.058594 " fill-opacity="1" fill-rule="evenodd"/><g clip-path="url(#3d7937ff80)"><path fill="#008cba" d="M 42.4375 57.699219 L 31.832031 51.578125 L 31.832031 38.679688 L 42.4375 32.546875 L 42.4375 7.5625 L 33.089844 2.171875 L 23.363281 7.792969 L 23.363281 18.777344 C 24.566406 19.269531 25.40625 20.449219 25.40625 21.824219 C 25.40625 23.640625 23.929688 25.117188 22.117188 25.117188 C 20.300781 25.117188 18.828125 23.640625 18.828125 21.824219 C 18.828125 20.503906 19.601562 19.367188 20.730469 18.84375 L 20.730469 9.3125 L 12.136719 14.273438 L 12.136719 26.21875 L 22.0625 31.957031 L 31.832031 26.316406 L 31.832031 15.96875 C 30.730469 15.441406 29.964844 14.316406 29.964844 13.003906 C 29.964844 11.191406 31.441406 9.714844 33.253906 9.714844 C 35.070312 9.714844 36.542969 11.191406 36.542969 13.003906 C 36.542969 14.394531 35.679688 15.585938 34.46875 16.066406 L 34.46875 27.835938 L 23.363281 34.242188 L 23.363281 45.871094 C 24.519531 46.386719 25.332031 47.542969 25.332031 48.890625 C 25.332031 50.703125 23.867188 52.179688 22.039062 52.179688 C 20.226562 52.179688 18.761719 50.703125 18.761719 48.890625 C 18.761719 47.542969 19.570312 46.386719 20.730469 45.871094 L 20.730469 34.230469 L 11.011719 28.625 L 1.03125 34.382812 L 1.03125 44.070312 L 10.652344 38.515625 L 10.640625 38.296875 C 10.640625 36.484375 12.117188 35.007812 13.929688 35.007812 C 15.746094 35.007812 17.21875 36.484375 17.21875 38.296875 C 17.21875 40.113281 15.746094 41.585938 13.929688 41.585938 C 13.144531 41.585938 12.421875 41.3125 11.863281 40.855469 L 1.03125 47.105469 L 1.03125 58.039062 L 11.011719 63.796875 L 19.273438 59.03125 L 11.679688 54.648438 C 11.089844 55.195312 10.300781 55.523438 9.4375 55.523438 C 7.625 55.523438 6.148438 54.046875 6.148438 52.234375 C 6.148438 50.417969 7.625 48.945312 9.4375 48.945312 C 11.253906 48.945312 12.71875 50.410156 12.726562 52.210938 L 34.46875 64.757812 L 34.46875 78.464844 C 35.671875 78.957031 36.523438 80.136719 36.523438 81.515625 C 36.523438 83.328125 35.046875 84.804688 33.234375 84.804688 C 31.417969 84.804688 29.941406 83.328125 29.941406 81.515625 C 29.941406 80.203125 30.71875 79.066406 31.832031 78.542969 L 31.832031 66.277344 L 21.910156 60.550781 L 12.136719 66.203125 L 12.136719 77.777344 L 20.730469 82.738281 L 20.730469 71.753906 C 19.570312 71.253906 18.761719 70.09375 18.761719 68.75 C 18.761719 66.933594 20.238281 65.460938 22.050781 65.460938 C 23.867188 65.460938 25.339844 66.933594 25.339844 68.75 C 25.339844 70.09375 24.519531 71.261719 23.363281 71.765625 L 23.363281 84.257812 L 33.332031 90.019531 L 42.4375 84.761719 Z M 42.4375 57.699219 " fill-opacity="1" fill-rule="evenodd"/></g><g clip-path="url(#09b6989363)"><path fill="#1e3a8a" d="M 45.070312 57.699219 L 45.070312 84.761719 L 54.164062 90.019531 L 64.144531 84.257812 L 64.144531 71.765625 C 62.972656 71.261719 62.164062 70.09375 62.164062 68.75 C 62.164062 66.933594 63.628906 65.460938 65.445312 65.460938 C 67.269531 65.460938 68.734375 66.933594 68.734375 68.75 C 68.734375 70.09375 67.925781 71.253906 66.777344 71.753906 L 66.777344 82.738281 L 75.367188 77.777344 L 75.367188 66.203125 L 65.597656 60.550781 L 55.671875 66.277344 L 55.671875 78.542969 C 56.789062 79.066406 57.550781 80.203125 57.550781 81.515625 C 57.550781 83.328125 56.085938 84.804688 54.261719 84.804688 C 52.449219 84.804688 50.984375 83.328125 50.984375 81.515625 C 50.984375 80.136719 51.835938 78.957031 53.039062 78.464844 L 53.039062 64.757812 L 74.777344 52.210938 C 74.789062 50.410156 76.253906 48.945312 78.058594 48.945312 C 79.882812 48.945312 81.347656 50.417969 81.347656 52.234375 C 81.347656 54.046875 79.882812 55.523438 78.058594 55.523438 C 77.195312 55.523438 76.417969 55.195312 75.828125 54.648438 L 68.230469 59.03125 L 76.484375 63.796875 L 86.472656 58.039062 L 86.472656 47.105469 L 75.640625 40.855469 C 75.074219 41.3125 74.351562 41.585938 73.578125 41.585938 C 71.761719 41.585938 70.285156 40.113281 70.285156 38.296875 C 70.285156 36.484375 71.761719 35.007812 73.578125 35.007812 C 75.390625 35.007812 76.867188 36.484375 76.867188 38.296875 L 76.855469 38.515625 L 86.472656 44.070312 L 86.472656 34.382812 L 76.484375 28.625 L 66.777344 34.230469 L 66.777344 45.871094 C 67.9375 46.386719 68.746094 47.542969 68.746094 48.890625 C 68.746094 50.703125 67.269531 52.179688 65.453125 52.179688 C 63.640625 52.179688 62.164062 50.703125 62.164062 48.890625 C 62.164062 47.542969 62.972656 46.386719 64.144531 45.871094 L 64.144531 34.242188 L 53.039062 27.835938 L 53.039062 16.066406 C 51.824219 15.585938 50.960938 14.394531 50.960938 13.003906 C 50.960938 11.191406 52.4375 9.714844 54.25 9.714844 C 56.066406 9.714844 57.542969 11.191406 57.542969 13.003906 C 57.542969 14.316406 56.777344 15.441406 55.671875 15.96875 L 55.671875 26.316406 L 65.445312 31.957031 L 75.367188 26.21875 L 75.367188 14.273438 L 66.777344 9.3125 L 66.777344 18.84375 C 67.890625 19.367188 68.667969 20.503906 68.667969 21.824219 C 68.667969 23.640625 67.191406 25.117188 65.378906 25.117188 C 63.5625 25.117188 62.089844 23.640625 62.089844 21.824219 C 62.089844 20.449219 62.941406 19.269531 64.144531 18.777344 L 64.144531 7.792969 L 54.40625 2.171875 L 45.070312 7.5625 L 45.070312 32.546875 L 55.671875 38.679688 L 55.671875 51.578125 Z M 45.070312 57.699219 " fill-opacity="1" fill-rule="evenodd"/></g><g transform="matrix(1, 0, 0, 1, 98, 56)"><g clip-path="url(#71aeae734d)"><g fill="#008cba" fill-opacity="1"><g transform="translate(0.609255, 24.904437)"><g><path d="M 21.171875 0 C 22.929688 0 24.429688 -0.625 25.671875 -1.875 C 26.921875 -3.125 27.546875 -4.628906 27.546875 -6.390625 L 27.546875 -14.203125 C 27.546875 -15.960938 26.921875 -17.46875 25.671875 -18.71875 C 24.429688 -19.96875 22.929688 -20.59375 21.171875 -20.59375 L 2.875 -20.59375 L 2.875 0 Z M 21.171875 -2.546875 L 5.421875 -2.546875 L 5.421875 -18.046875 L 21.171875 -18.046875 C 22.234375 -18.046875 23.132812 -17.664062 23.875 -16.90625 C 24.625 -16.15625 25 -15.253906 25 -14.203125 L 25 -6.390625 C 25 -5.335938 24.625 -4.429688 23.875 -3.671875 C 23.132812 -2.921875 22.234375 -2.546875 21.171875 -2.546875 Z M 21.171875 -2.546875 "/></g></g></g><g fill="#008cba" fill-opacity="1"><g transform="translate(34.856844, 24.904437)"><g><path d="M 5.421875 0 L 5.421875 -20.578125 L 2.875 -20.578125 L 2.875 0 Z M 5.421875 0 "/></g></g></g><g fill="#008cba" fill-opacity="1"><g transform="translate(47.702828, 24.904437)"><g><path d="M 20.453125 0 C 22.160156 0 23.664062 -0.617188 24.96875 -1.859375 C 26.195312 -3.128906 26.820312 -4.640625 26.84375 -6.390625 L 26.84375 -8.578125 C 26.84375 -9.140625 26.644531 -9.613281 26.25 -10 C 25.851562 -10.394531 25.378906 -10.59375 24.828125 -10.59375 L 14.5 -10.59375 L 14.5 -8.03125 L 24.28125 -8.03125 L 24.28125 -6.390625 C 24.28125 -5.359375 23.90625 -4.453125 23.15625 -3.671875 C 22.375 -2.921875 21.472656 -2.546875 20.453125 -2.546875 L 8.53125 -2.546875 C 7.476562 -2.546875 6.578125 -2.921875 5.828125 -3.671875 C 5.078125 -4.429688 4.703125 -5.335938 4.703125 -6.390625 L 4.703125 -14.203125 C 4.703125 -15.253906 5.078125 -16.15625 5.828125 -16.90625 C 6.578125 -17.664062 7.476562 -18.046875 8.53125 -18.046875 L 20.453125 -18.046875 C 21.515625 -18.046875 22.414062 -17.664062 23.15625 -16.90625 C 23.90625 -16.15625 24.28125 -15.253906 24.28125 -14.203125 L 26.84375 -14.203125 C 26.84375 -15.960938 26.21875 -17.46875 24.96875 -18.71875 C 23.71875 -19.96875 22.210938 -20.59375 20.453125 -20.59375 L 8.53125 -20.59375 C 6.769531 -20.59375 5.265625 -19.96875 4.015625 -18.71875 C 2.773438 -17.46875 2.15625 -15.960938 2.15625 -14.203125 L 2.15625 -6.390625 C 2.15625 -4.628906 2.773438 -3.125 4.015625 -1.875 C 5.265625 -0.625 6.769531 0 8.53125 0 Z M 20.453125 0 "/></g></g></g><g fill="#008cba" fill-opacity="1"><g transform="translate(81.233205, 24.904437)"><g><path d="M 5.421875 0 L 5.421875 -20.578125 L 2.875 -20.578125 L 2.875 0 Z M 5.421875 0 "/></g></g></g><g fill="#008cba" fill-opacity="1"><g transform="translate(94.07919, 24.904437)"><g><path d="M 13.109375 0 L 10.5625 0 L 10.5625 -18.03125 L 0.4375 -18.03125 L 0.4375 -20.578125 L 23.25 -20.578125 L 23.25 -18.03125 L 13.109375 -18.03125 Z M 13.109375 0 "/></g></g></g><g fill="#008cba" fill-opacity="1"><g transform="translate(122.302198, 24.904437)"><g><path d="M 29.609375 0 L 26.515625 0 L 23.375 -4.65625 L 6.640625 -4.65625 L 3.515625 0 L 0.4375 0 L 14.34375 -20.578125 L 15.6875 -20.578125 Z M 21.65625 -7.203125 L 15.015625 -17.015625 L 8.375 -7.203125 Z M 21.65625 -7.203125 "/></g></g></g><g fill="#008cba" fill-opacity="1"><g transform="translate(156.879714, 24.904437)"><g><path d="M 22.078125 0 L 22.078125 -2.546875 L 5.421875 -2.546875 L 5.421875 -20.59375 L 2.875 -20.59375 L 2.875 0 Z M 22.078125 0 "/></g></g></g><g fill="#008cba" fill-opacity="1"><g transform="translate(184.500265, 24.904437)"><g/></g></g><g fill="#008cba" fill-opacity="1"><g transform="translate(196.342153, 24.904437)"><g><path d="M 22.15625 0 L 6.828125 0 C 5.535156 0 4.429688 -0.453125 3.515625 -1.359375 C 2.609375 -2.273438 2.15625 -3.378906 2.15625 -4.671875 L 4.703125 -4.671875 C 4.703125 -4.085938 4.910156 -3.585938 5.328125 -3.171875 C 5.742188 -2.753906 6.242188 -2.546875 6.828125 -2.546875 L 22.15625 -2.546875 C 22.738281 -2.546875 23.238281 -2.753906 23.65625 -3.171875 C 24.070312 -3.585938 24.28125 -4.085938 24.28125 -4.671875 L 24.28125 -6.890625 C 24.28125 -7.472656 24.070312 -7.972656 23.65625 -8.390625 C 23.238281 -8.804688 22.738281 -9.015625 22.15625 -9.015625 L 6.828125 -9.015625 C 5.535156 -9.015625 4.429688 -9.46875 3.515625 -10.375 C 2.609375 -11.289062 2.15625 -12.394531 2.15625 -13.6875 L 2.15625 -15.90625 C 2.15625 -17.195312 2.609375 -18.296875 3.515625 -19.203125 C 4.429688 -20.117188 5.535156 -20.578125 6.828125 -20.578125 L 22.15625 -20.578125 C 23.445312 -20.578125 24.550781 -20.117188 25.46875 -19.203125 C 26.382812 -18.296875 26.84375 -17.195312 26.84375 -15.90625 L 24.28125 -15.90625 C 24.28125 -16.488281 24.070312 -16.988281 23.65625 -17.40625 C 23.238281 -17.820312 22.738281 -18.03125 22.15625 -18.03125 L 6.828125 -18.03125 C 6.242188 -18.03125 5.742188 -17.820312 5.328125 -17.40625 C 4.910156 -16.988281 4.703125 -16.488281 4.703125 -15.90625 L 4.703125 -13.6875 C 4.703125 -13.101562 4.910156 -12.601562 5.328125 -12.1875 C 5.742188 -11.769531 6.242188 -11.5625 6.828125 -11.5625 L 22.15625 -11.5625 C 23.445312 -11.5625 24.550781 -11.101562 25.46875 -10.1875 C 26.382812 -9.28125 26.84375 -8.179688 26.84375 -6.890625 L 26.84375 -4.671875 C 26.84375 -3.378906 26.382812 -2.273438 25.46875 -1.359375 C 24.550781 -0.453125 23.445312 0 22.15625 0 Z M 22.15625 0 "/></g></g></g><g fill="#008cba" fill-opacity="1"><g transform="translate(229.872529, 24.904437)"><g><path d="M 20.453125 0 C 22.210938 0 23.71875 -0.625 24.96875 -1.875 C 26.21875 -3.125 26.84375 -4.628906 26.84375 -6.390625 L 26.84375 -14.203125 C 26.84375 -15.960938 26.21875 -17.46875 24.96875 -18.71875 C 23.71875 -19.96875 22.210938 -20.59375 20.453125 -20.59375 L 8.53125 -20.59375 C 6.769531 -20.59375 5.265625 -19.96875 4.015625 -18.71875 C 2.773438 -17.46875 2.15625 -15.960938 2.15625 -14.203125 L 2.15625 -6.390625 C 2.15625 -4.628906 2.773438 -3.125 4.015625 -1.875 C 5.265625 -0.625 6.769531 0 8.53125 0 Z M 20.453125 -2.546875 L 8.53125 -2.546875 C 7.476562 -2.546875 6.578125 -2.921875 5.828125 -3.671875 C 5.078125 -4.429688 4.703125 -5.335938 4.703125 -6.390625 L 4.703125 -14.203125 C 4.703125 -15.253906 5.078125 -16.15625 5.828125 -16.90625 C 6.578125 -17.664062 7.476562 -18.046875 8.53125 -18.046875 L 20.453125 -18.046875 C 21.515625 -18.046875 22.414062 -17.664062 23.15625 -16.90625 C 23.90625 -16.15625 24.28125 -15.253906 24.28125 -14.203125 L 24.28125 -6.390625 C 24.28125 -5.335938 23.90625 -4.429688 23.15625 -3.671875 C 22.414062 -2.921875 21.515625 -2.546875 20.453125 -2.546875 Z M 20.453125 -2.546875 "/></g></g></g><g fill="#008cba" fill-opacity="1"><g transform="translate(263.402906, 24.904437)"><g><path d="M 22.078125 0 L 22.078125 -2.546875 L 5.421875 -2.546875 L 5.421875 -20.59375 L 2.875 -20.59375 L 2.875 0 Z M 22.078125 0 "/></g></g></g><g fill="#008cba" fill-opacity="1"><g transform="translate(291.023457, 24.904437)"><g><path d="M 20.453125 0 C 22.210938 0 23.71875 -0.625 24.96875 -1.875 C 26.21875 -3.125 26.84375 -4.628906 26.84375 -6.390625 L 26.84375 -20.59375 L 24.28125 -20.59375 L 24.28125 -6.390625 C 24.28125 -5.335938 23.90625 -4.429688 23.15625 -3.671875 C 22.414062 -2.921875 21.515625 -2.546875 20.453125 -2.546875 L 8.53125 -2.546875 C 7.476562 -2.546875 6.578125 -2.921875 5.828125 -3.671875 C 5.078125 -4.429688 4.703125 -5.335938 4.703125 -6.390625 L 4.703125 -20.59375 L 2.15625 -20.59375 L 2.15625 -6.390625 C 2.15625 -4.628906 2.773438 -3.125 4.015625 -1.875 C 5.265625 -0.625 6.769531 0 8.53125 0 Z M 20.453125 0 "/></g></g></g><g fill="#008cba" fill-opacity="1"><g transform="translate(324.553834, 24.904437)"><g><path d="M 13.109375 0 L 10.5625 0 L 10.5625 -18.03125 L 0.4375 -18.03125 L 0.4375 -20.578125 L 23.25 -20.578125 L 23.25 -18.03125 L 13.109375 -18.03125 Z M 13.109375 0 "/></g></g></g><g fill="#008cba" fill-opacity="1"><g transform="translate(352.776842, 24.904437)"><g><path d="M 5.421875 0 L 5.421875 -20.578125 L 2.875 -20.578125 L 2.875 0 Z M 5.421875 0 "/></g></g></g><g fill="#008cba" fill-opacity="1"><g transform="translate(365.622827, 24.904437)"><g><path d="M 20.453125 0 C 22.210938 0 23.71875 -0.625 24.96875 -1.875 C 26.21875 -3.125 26.84375 -4.628906 26.84375 -6.390625 L 26.84375 -14.203125 C 26.84375 -15.960938 26.21875 -17.46875 24.96875 -18.71875 C 23.71875 -19.96875 22.210938 -20.59375 20.453125 -20.59375 L 8.53125 -20.59375 C 6.769531 -20.59375 5.265625 -19.96875 4.015625 -18.71875 C 2.773438 -17.46875 2.15625 -15.960938 2.15625 -14.203125 L 2.15625 -6.390625 C 2.15625 -4.628906 2.773438 -3.125 4.015625 -1.875 C 5.265625 -0.625 6.769531 0 8.53125 0 Z M 20.453125 -2.546875 L 8.53125 -2.546875 C 7.476562 -2.546875 6.578125 -2.921875 5.828125 -3.671875 C 5.078125 -4.429688 4.703125 -5.335938 4.703125 -6.390625 L 4.703125 -14.203125 C 4.703125 -15.253906 5.078125 -16.15625 5.828125 -16.90625 C 6.578125 -17.664062 7.476562 -18.046875 8.53125 -18.046875 L 20.453125 -18.046875 C 21.515625 -18.046875 22.414062 -17.664062 23.15625 -16.90625 C 23.90625 -16.15625 24.28125 -15.253906 24.28125 -14.203125 L 24.28125 -6.390625 C 24.28125 -5.335938 23.90625 -4.429688 23.15625 -3.671875 C 22.414062 -2.921875 21.515625 -2.546875 20.453125 -2.546875 Z M 20.453125 -2.546875 "/></g></g></g><g fill="#008cba" fill-opacity="1"><g transform="translate(399.153222, 24.904437)"><g><path d="M 27.546875 0 L 25.8125 0 L 5.421875 -16.625 L 5.421875 0 L 2.875 0 L 2.875 -20.578125 L 4.609375 -20.578125 L 25 -3.953125 L 25 -20.578125 L 27.546875 -20.578125 Z M 27.546875 0 "/></g></g></g><g fill="#008cba" fill-opacity="1"><g transform="translate(434.118004, 24.904437)"><g><path d="M 22.15625 0 L 6.828125 0 C 5.535156 0 4.429688 -0.453125 3.515625 -1.359375 C 2.609375 -2.273438 2.15625 -3.378906 2.15625 -4.671875 L 4.703125 -4.671875 C 4.703125 -4.085938 4.910156 -3.585938 5.328125 -3.171875 C 5.742188 -2.753906 6.242188 -2.546875 6.828125 -2.546875 L 22.15625 -2.546875 C 22.738281 -2.546875 23.238281 -2.753906 23.65625 -3.171875 C 24.070312 -3.585938 24.28125 -4.085938 24.28125 -4.671875 L 24.28125 -6.890625 C 24.28125 -7.472656 24.070312 -7.972656 23.65625 -8.390625 C 23.238281 -8.804688 22.738281 -9.015625 22.15625 -9.015625 L 6.828125 -9.015625 C 5.535156 -9.015625 4.429688 -9.46875 3.515625 -10.375 C 2.609375 -11.289062 2.15625 -12.394531 2.15625 -13.6875 L 2.15625 -15.90625 C 2.15625 -17.195312 2.609375 -18.296875 3.515625 -19.203125 C 4.429688 -20.117188 5.535156 -20.578125 6.828125 -20.578125 L 22.15625 -20.578125 C 23.445312 -20.578125 24.550781 -20.117188 25.46875 -19.203125 C 26.382812 -18.296875 26.84375 -17.195312 26.84375 -15.90625 L 24.28125 -15.90625 C 24.28125 -16.488281 24.070312 -16.988281 23.65625 -17.40625 C 23.238281 -17.820312 22.738281 -18.03125 22.15625 -18.03125 L 6.828125 -18.03125 C 6.242188 -18.03125 5.742188 -17.820312 5.328125 -17.40625 C 4.910156 -16.988281 4.703125 -16.488281 4.703125 -15.90625 L 4.703125 -13.6875 C 4.703125 -13.101562 4.910156 -12.601562 5.328125 -12.1875 C 5.742188 -11.769531 6.242188 -11.5625 6.828125 -11.5625 L 22.15625 -11.5625 C 23.445312 -11.5625 24.550781 -11.101562 25.46875 -10.1875 C 26.382812 -9.28125 26.84375 -8.179688 26.84375 -6.890625 L 26.84375 -4.671875 C 26.84375 -3.378906 26.382812 -2.273438 25.46875 -1.359375 C 24.550781 -0.453125 23.445312 0 22.15625 0 Z M 22.15625 0 "/></g></g></g></g></g><g clip-path="url(#6cd87d7feb)"><g transform="matrix(1, 0, 0, 1, 96, -0.000000000000113687)"><g clip-path="url(#a43bb2dd1e)"><g fill="#ffffff" fill-opacity="1"><g transform="translate(0.65487, 51.382897)"><g><path d="M 12.671875 0 L 5.921875 0 L 5.921875 -42.453125 L 53.15625 -42.453125 L 53.15625 -35.734375 L 12.671875 -35.734375 L 12.671875 -24.609375 L 48.359375 -24.609375 L 48.359375 -17.859375 L 12.671875 -17.859375 Z M 12.671875 0 "/></g></g><g transform="translate(58.246555, 51.382897)"><g><path d="M 44.796875 0 L 44.796875 -6.75 L 12.671875 -6.75 L 12.671875 -42.453125 L 5.921875 -42.453125 L 5.921875 0 Z M 44.796875 0 "/></g></g><g transform="translate(105.119376, 51.382897)"><g><path d="M 41.546875 0 C 45.273438 0 48.457031 -1.316406 51.09375 -3.953125 C 53.726562 -6.585938 55.046875 -9.769531 55.046875 -13.5 L 55.046875 -28.984375 C 55.046875 -32.691406 53.726562 -35.863281 51.09375 -38.5 C 48.457031 -41.132812 45.273438 -42.453125 41.546875 -42.453125 L 17.9375 -42.453125 C 14.207031 -42.453125 11.023438 -41.132812 8.390625 -38.5 C 5.753906 -35.863281 4.4375 -32.691406 4.4375 -28.984375 L 4.4375 -13.5 C 4.4375 -9.769531 5.753906 -6.585938 8.390625 -3.953125 C 11.023438 -1.316406 14.207031 0 17.9375 0 Z M 41.546875 -6.75 L 17.9375 -6.75 C 16.0625 -6.75 14.46875 -7.40625 13.15625 -8.71875 C 11.84375 -10.03125 11.1875 -11.625 11.1875 -13.5 L 11.1875 -28.984375 C 11.1875 -30.835938 11.84375 -32.425781 13.15625 -33.75 C 14.46875 -35.070312 16.0625 -35.734375 17.9375 -35.734375 L 41.546875 -35.734375 C 43.398438 -35.734375 44.988281 -35.070312 46.3125 -33.75 C 47.632812 -32.425781 48.296875 -30.835938 48.296875 -28.984375 L 48.296875 -13.5 C 48.296875 -11.625 47.632812 -10.03125 46.3125 -8.71875 C 44.988281 -7.40625 43.398438 -6.75 41.546875 -6.75 Z M 41.546875 -6.75 "/></g></g></g><g fill="#ffffff" fill-opacity="1"><g transform="translate(160.164585, 51.382897)"><g><path d="M 60.8125 0 L 56.578125 0 L 40.765625 -31.5625 L 24.96875 0 L 20.75 0 L 0.890625 -42.453125 L 8.328125 -42.453125 L 22.984375 -11.109375 L 38.703125 -42.453125 L 42.875 -42.453125 L 58.5625 -11.109375 L 73.25 -42.453125 L 80.71875 -42.453125 Z M 60.8125 0 "/></g></g><g transform="translate(241.770078, 51.382897)"><g><path d="M 26.859375 0 L 20.109375 0 L 20.109375 -35.734375 L 0.890625 -35.734375 L 0.890625 -42.453125 L 46.109375 -42.453125 L 46.109375 -35.734375 L 26.859375 -35.734375 Z M 26.859375 0 "/></g></g><g transform="translate(288.76134, 51.382897)"><g><path d="M 53.15625 0 L 5.921875 0 L 5.921875 -42.453125 L 53.15625 -42.453125 L 53.15625 -35.734375 L 12.671875 -35.734375 L 12.671875 -24.609375 L 48.359375 -24.609375 L 48.359375 -17.859375 L 12.671875 -17.859375 L 12.671875 -6.75 L 53.15625 -6.75 Z M 53.15625 0 "/></g></g><g transform="translate(346.353025, 51.382897)"><g><path d="M 41.546875 0 C 45.273438 0 48.457031 -1.316406 51.09375 -3.953125 C 53.726562 -6.585938 55.046875 -9.769531 55.046875 -13.5 L 48.296875 -13.5 C 48.296875 -11.625 47.632812 -10.03125 46.3125 -8.71875 C 44.988281 -7.40625 43.398438 -6.75 41.546875 -6.75 L 17.9375 -6.75 C 16.0625 -6.75 14.46875 -7.40625 13.15625 -8.71875 C 11.84375 -10.03125 11.1875 -11.625 11.1875 -13.5 L 11.1875 -28.984375 C 11.1875 -30.835938 11.84375 -32.425781 13.15625 -33.75 C 14.46875 -35.070312 16.0625 -35.734375 17.9375 -35.734375 L 41.546875 -35.734375 C 43.398438 -35.734375 44.988281 -35.070312 46.3125 -33.75 C 47.632812 -32.425781 48.296875 -30.835938 48.296875 -28.984375 L 55.046875 -28.984375 C 55.046875 -32.691406 53.726562 -35.863281 51.09375 -38.5 C 48.457031 -41.132812 45.273438 -42.453125 41.546875 -42.453125 L 17.9375 -42.453125 C 14.207031 -42.453125 11.023438 -41.132812 8.390625 -38.5 C 5.753906 -35.863281 4.4375 -32.691406 4.4375 -28.984375 L 4.4375 -13.5 C 4.4375 -9.769531 5.753906 -6.585938 8.390625 -3.953125 C 11.023438 -1.316406 14.207031 0 17.9375 0 Z M 41.546875 0 "/></g></g></g><g fill="#ffffff" fill-opacity="1"><g transform="translate(405.839765, 51.382897)"><g><path d="M 55.15625 0 L 48.40625 0 L 48.40625 -17.890625 L 12.671875 -17.890625 L 12.671875 0 L 5.921875 0 L 5.921875 -42.453125 L 12.671875 -42.453125 L 12.671875 -24.609375 L 48.40625 -24.609375 L 48.40625 -42.453125 L 55.15625 -42.453125 Z M 55.15625 0 "/></g></g></g><g fill="#ffffff" fill-opacity="1"><g transform="translate(466.927221, 51.382897)"><g/></g></g></g></g></g></g></g></svg>