<svg xmlns="http://www.w3.org/2000/svg" viewBox="-110 -110 220 220" width="720" height="720">
<defs><linearGradient id="g-digital" x1="0" y1="100" x2="0" y2="-100" gradientUnits="userSpaceOnUse">
<stop offset="0%" stop-color="#0A3D91"/><stop offset="50%" stop-color="#1E78FF"/><stop offset="100%" stop-color="#38CFFF"/>
</linearGradient></defs>
<path d="M 18.960,-34.053 L 38.971,-22.500 L 54.385,-13.455 L 54.519,-12.273 L 54.913,-11.150 L 55.547,-10.143 L 56.389,-9.303 L 57.398,-8.671 L 58.522,-8.281 L 59.705,-8.151 L 60.887,-8.288 L 62.009,-8.685 L 63.014,-9.322 L 63.852,-10.167 L 64.480,-11.177 L 64.868,-12.303 L 64.994,-13.486 L 64.854,-14.668 L 64.454,-15.788 L 63.814,-16.792 L 62.966,-17.627 L 61.954,-18.252 L 60.828,-18.636 L 59.644,-18.760 L 58.463,-18.616 L 57.343,-18.212 L 56.342,-17.570 L 43.301,-25.000 L 54.567,-31.504 L 77.942,-18.009 L 77.942,-7.449 L 55.074,5.739 L 54.029,5.149 L 52.878,4.810 L 51.680,4.737 L 50.496,4.936 L 49.388,5.396 L 48.411,6.094 L 47.616,6.993 L 47.043,8.048 L 46.722,9.204 L 46.670,10.403 L 46.888,11.584 L 47.366,12.684 L 48.080,13.650 L 48.992,14.430 L 50.056,14.985 L 51.218,15.286 L 52.418,15.319 L 53.594,15.081 L 54.687,14.585 L 55.640,13.856 L 56.405,12.931 L 56.943,11.858 L 57.225,10.691 L 57.238,9.491 L 77.942,-2.449 L 77.942,18.016 L 58.892,29.001 L 38.971,17.526 L 38.971,17.526 L 38.971,4.843 L 40.005,4.233 L 40.874,3.406 L 41.536,2.404 L 41.955,1.279 L 42.111,0.089 L 41.995,-1.105 L 41.614,-2.244 L 40.987,-3.267 L 40.145,-4.123 L 39.133,-4.768 L 38.001,-5.168 L 36.809,-5.304 L 35.616,-5.169 L 34.485,-4.769 L 33.472,-4.125 L 32.630,-3.269 L 32.002,-2.246 L 31.620,-1.108 L 31.504,0.086 L 31.659,1.277 L 32.078,2.401 L 32.739,3.403 L 33.608,4.231 L 34.641,4.842 L 34.641,20.023 L 18.961,29.065 L 18.961,52.079 L 17.958,52.684 L 17.115,53.499 L 16.477,54.482 L 16.075,55.582 L 15.930,56.745 L 16.049,57.911 L 16.426,59.020 L 17.042,60.017 L 17.866,60.850 L 18.856,61.478 L 19.961,61.867 L 21.125,61.999 L 22.290,61.867 L 23.395,61.478 L 24.385,60.850 L 25.209,60.017 L 25.825,59.020 L 26.202,57.911 L 26.321,56.745 L 26.176,55.582 L 25.774,54.482 L 25.136,53.499 L 24.293,52.684 L 23.290,52.079 L 23.290,31.615 L 38.971,22.455 L 54.560,31.500 L 54.560,58.500 L 43.323,64.988 L 43.323,43.758 L 44.332,43.109 L 45.170,42.251 L 45.793,41.225 L 46.170,40.086 L 46.282,38.892 L 46.122,37.702 L 45.698,36.580 L 45.034,35.581 L 44.161,34.757 L 43.126,34.150 L 41.981,33.792 L 40.785,33.700 L 39.598,33.879 L 38.483,34.320 L 37.495,35.001 L 36.685,35.887 L 36.095,36.931 L 35.755,38.082 L 35.682,39.280 L 35.881,40.463 L 36.340,41.572 L 37.037,42.549 L 37.935,43.344 L 38.990,43.917 L 38.974,67.498 L 23.816,76.250 L 2.165,63.750 L 2.165,25.660 L 23.305,13.455 L 23.305,-13.455 L 2.165,-25.660 L 2.165,-63.750 L 23.816,-76.250 L 38.389,-67.836 L 38.389,-49.843 L 37.356,-49.232 L 36.487,-48.404 L 35.825,-47.403 L 35.406,-46.278 L 35.251,-45.088 L 35.367,-43.893 L 35.748,-42.755 L 36.376,-41.732 L 37.218,-40.876 L 38.230,-40.232 L 39.362,-39.831 L 40.555,-39.696 L 41.747,-39.831 L 42.879,-40.232 L 43.891,-40.876 L 44.733,-41.732 L 45.361,-42.755 L 45.742,-43.893 L 45.858,-45.088 L 45.703,-46.278 L 45.284,-47.403 L 44.622,-48.404 L 43.753,-49.232 L 42.720,-49.843 L 42.720,-65.336 L 54.561,-58.499 L 54.566,-36.504 L 39.002,-27.482 L 23.291,-36.553 L 23.291,-52.158 L 24.324,-52.769 L 25.193,-53.596 L 25.854,-54.598 L 26.273,-55.722 L 26.429,-56.912 L 26.313,-58.107 L 25.931,-59.245 L 25.303,-60.268 L 24.462,-61.123 L 23.449,-61.768 L 22.318,-62.168 L 21.125,-62.304 L 19.933,-62.168 L 18.802,-61.768 L 17.789,-61.123 L 16.948,-60.268 L 16.320,-59.245 L 15.938,-58.107 L 15.822,-56.912 L 15.978,-55.722 L 16.397,-54.598 L 17.058,-53.596 L 17.927,-52.769 L 18.960,-52.158 L 18.960,-34.053 Z" fill="url(#g-digital)" fill-rule="nonzero" stroke="none"/>
<path d="M -34.641,-25.031 L -18.833,-34.132 L -18.833,-52.159 L -17.800,-52.770 L -16.930,-53.599 L -16.269,-54.602 L -15.851,-55.728 L -15.697,-56.919 L -15.815,-58.114 L -16.198,-59.252 L -16.828,-60.275 L -17.672,-61.130 L -18.686,-61.773 L -19.820,-62.171 L -21.013,-62.304 L -22.206,-62.165 L -23.337,-61.761 L -24.349,-61.113 L -25.188,-60.254 L -25.813,-59.228 L -26.191,-58.088 L -26.303,-56.892 L -26.143,-55.702 L -25.719,-54.578 L -25.053,-53.579 L -24.179,-52.754 L -23.142,-52.148 L -23.142,-36.639 L -39.137,-27.404 L -55.148,-36.646 L -55.141,-58.164 L -43.300,-65.001 L -43.297,-49.844 L -44.331,-49.234 L -45.201,-48.407 L -45.863,-47.406 L -46.283,-46.282 L -46.439,-45.092 L -46.324,-43.897 L -45.944,-42.759 L -45.317,-41.736 L -44.476,-40.879 L -43.464,-40.234 L -42.333,-39.833 L -41.140,-39.696 L -39.948,-39.831 L -38.816,-40.230 L -37.803,-40.874 L -36.961,-41.729 L -36.332,-42.752 L -35.950,-43.890 L -35.833,-45.084 L -35.988,-46.274 L -36.406,-47.399 L -37.066,-48.401 L -37.935,-49.229 L -38.968,-49.841 L -38.970,-67.500 L -23.797,-76.261 L -23.797,-76.239 L -2.165,-63.750 L -2.165,-25.660 L -23.305,-13.455 L -23.305,13.455 L -2.165,25.660 L -2.165,63.750 L -23.816,76.250 L -39.014,67.475 L -39.000,43.855 L -37.963,43.250 L -37.089,42.428 L -36.422,41.430 L -35.996,40.308 L -35.834,39.119 L -35.942,37.924 L -36.317,36.784 L -36.939,35.757 L -37.775,34.897 L -38.784,34.246 L -39.913,33.839 L -41.105,33.696 L -42.298,33.825 L -43.432,34.218 L -44.448,34.857 L -45.295,35.707 L -45.928,36.727 L -46.317,37.862 L -46.440,39.056 L -46.292,40.247 L -45.879,41.374 L -45.224,42.380 L -44.360,43.212 L -43.330,43.829 L -43.342,64.976 L -54.560,58.500 L -54.561,31.501 L -39.165,22.437 L -23.356,31.633 L -23.356,52.248 L -24.365,52.901 L -25.202,53.764 L -25.823,54.793 L -26.196,55.936 L -26.302,57.133 L -26.136,58.323 L -25.706,59.446 L -25.035,60.443 L -24.156,61.263 L -23.115,61.864 L -21.965,62.215 L -20.766,62.299 L -19.579,62.110 L -18.465,61.659 L -17.481,60.968 L -16.678,60.074 L -16.097,59.022 L -15.767,57.866 L -15.707,56.665 L -15.918,55.482 L -16.390,54.377 L -17.099,53.406 L -18.009,52.620 L -19.072,52.059 L -19.072,28.989 L -34.835,19.888 L -39.165,17.391 L -43.301,19.865 L -58.895,29.003 L -77.942,18.027 L -77.942,-2.488 L -57.236,9.467 L -55.071,5.737 L -77.942,-7.488 L -77.942,-18.008 L -54.560,-31.500 L -43.282,-25.011 L -56.355,-17.525 L -57.356,-18.186 L -58.481,-18.604 L -59.670,-18.759 L -60.864,-18.642 L -62.002,-18.260 L -63.024,-17.633 L -63.879,-16.791 L -64.524,-15.779 L -64.924,-14.648 L -65.060,-13.456 L -64.924,-12.264 L -64.524,-11.133 L -63.881,-10.121 L -63.026,-9.279 L -62.004,-8.651 L -60.866,-8.269 L -59.672,-8.152 L -58.483,-8.306 L -57.358,-8.724 L -56.356,-9.384 L -54.916,-11.284 L -54.454,-13.623 L -38.977,-22.534 L -39.060,-4.801 L -40.079,-4.174 L -41.573,-2.326 L -42.110,-0.010 L -41.582,2.307 L -40.095,4.162 L -37.947,5.180 L -35.570,5.158 L -33.441,4.100 L -31.988,2.219 L -31.503,-0.108 L -32.083,-2.413 L -33.611,-4.234 L -34.641,-4.842 L -34.641,-25.031 Z" fill="url(#g-digital)" fill-rule="nonzero" stroke="none"/>
<path d="M -18.868,-10.893 L 0.000,-21.787 L 18.868,-10.893 L 18.868,10.893 L -0.000,21.787 L -18.868,10.893 L -18.868,-10.893 Z" fill="none" stroke="url(#g-digital)" stroke-width="1.5" stroke-linejoin="round" stroke-linecap="round"/>
<path d="M 12.372,-9.643 L -0.007,-2.496 L -12.374,-9.636 L 0.000,-16.780 L 12.372,-9.643 Z" fill="none" stroke="url(#g-digital)" stroke-width="1.5" stroke-linejoin="round" stroke-linecap="round"/>
<path d="M 14.538,-5.893 L 14.538,8.409 L 2.165,15.554 L 2.165,1.250 L 14.538,-5.893 Z" fill="none" stroke="url(#g-digital)" stroke-width="1.5" stroke-linejoin="round" stroke-linecap="round"/>
<path d="M -14.538,8.393 L -14.538,-5.893 L -2.165,1.250 L -2.165,15.554 L -14.538,8.393 Z" fill="none" stroke="url(#g-digital)" stroke-width="1.5" stroke-linejoin="round" stroke-linecap="round"/>
<circle cx="0" cy="0" r="86.103" fill="none" stroke="url(#g-digital)" stroke-width="2.5"/>
<circle cx="0" cy="0" r="89.000" fill="none" stroke="url(#g-digital)" stroke-width="2.5"/>
</svg>