<svg xmlns="http://www.w3.org/2000/svg" viewBox="-110 -110 220 220" width="512" height="512"><defs><linearGradient id="g-digital" x1="0" y1="100" x2="0" y2="-100" gradientUnits="userSpaceOnUse"><stop offset="0%" stop-color="#0A3D91"/><stop offset="50%" stop-color="#1E78FF"/><stop offset="100%" stop-color="#38CFFF"/></linearGradient></defs>
<rect x="-110" y="-110" width="220" height="220" fill="#0B1114"/>
<path d="M 12.372,-9.643 L -0.007,-2.496 L -12.374,-9.636 L 0.000,-16.780 L 12.372,-9.643 Z" fill="none" stroke="url(#g-digital)" stroke-width="2.5" stroke-linejoin="round" stroke-linecap="round"/>
<path d="M 14.538,-5.893 L 14.538,8.409 L 2.165,15.554 L 2.165,1.250 L 14.538,-5.893 Z" fill="none" stroke="url(#g-digital)" stroke-width="2.5" stroke-linejoin="round" stroke-linecap="round"/>
<path d="M -14.538,8.393 L -14.538,-5.893 L -2.165,1.250 L -2.165,15.554 L -14.538,8.393 Z" fill="none" stroke="url(#g-digital)" stroke-width="2.5" stroke-linejoin="round" stroke-linecap="round"/>
<path d="M 18.868,-10.893 L 0.000,-21.787 L -18.868,-10.893 L -18.868,10.893 L 0.000,21.787 L 18.868,10.893 L 18.868,-10.893 Z" fill="none" stroke="url(#g-digital)" stroke-width="2.5" stroke-linejoin="round"/>
<circle cx="0.000" cy="-0.000" r="86.103" fill="none" stroke="url(#g-digital)" stroke-width="2.5"/>
<circle cx="0.000" cy="-0.000" r="89.000" fill="none" stroke="url(#g-digital)" stroke-width="2.5"/>
</svg>
