<svg xmlns="http://www.w3.org/2000/svg" xmlns:xlink="http://www.w3.org/1999/xlink" width="600" zoomAndPan="magnify" viewBox="0 0 450 74.999997" height="100" preserveAspectRatio="xMidYMid meet" version="1.0"><defs><g/><clipPath id="1b037eb343"><path d="M 0.65625 0.476562 L 28 0.476562 L 28 56.644531 L 0.65625 56.644531 Z M 0.65625 0.476562 " clip-rule="nonzero"/></clipPath><clipPath id="f88f065633"><path d="M 28 0.476562 L 55.175781 0.476562 L 55.175781 56.644531 L 28 56.644531 Z M 28 0.476562 " clip-rule="nonzero"/></clipPath><clipPath id="72ca4227a9"><path d="M 62 37 L 362 37 L 362 56.761719 L 62 56.761719 Z M 62 37 " clip-rule="nonzero"/></clipPath><clipPath id="da15eec1a8"><rect x="0" width="300" y="0" height="20"/></clipPath><clipPath id="27c4f8f1f4"><path d="M 61 1 L 368.960938 1 L 368.960938 42 L 61 42 Z M 61 1 " clip-rule="nonzero"/></clipPath><clipPath id="3b8b84358a"><rect x="0" width="308" y="0" height="41"/></clipPath><clipPath id="6b229ce155"><rect x="0" width="369" y="0" height="57"/></clipPath></defs><g transform="matrix(1, 0, 0, 1, 40, 9)"><g clip-path="url(#6b229ce155)"><path fill="#008cba" d="M 21.984375 31.023438 L 27.90625 34.441406 L 33.832031 31.023438 L 33.832031 24.734375 L 27.90625 21.3125 L 21.984375 24.734375 Z M 21.984375 31.023438 " fill-opacity="1" fill-rule="evenodd"/><g clip-path="url(#1b037eb343)"><path fill="#008cba" d="M 27.066406 35.898438 L 20.304688 31.992188 L 20.304688 23.765625 L 27.066406 19.855469 L 27.066406 3.917969 L 21.105469 0.480469 L 14.902344 4.0625 L 14.902344 11.070312 C 15.667969 11.382812 16.207031 12.136719 16.207031 13.015625 C 16.207031 14.171875 15.265625 15.113281 14.105469 15.113281 C 12.949219 15.113281 12.007812 14.171875 12.007812 13.015625 C 12.007812 12.171875 12.503906 11.445312 13.222656 11.109375 L 13.222656 5.03125 L 7.742188 8.195312 L 7.742188 15.816406 L 14.074219 19.476562 L 20.304688 15.878906 L 20.304688 9.277344 C 19.601562 8.941406 19.113281 8.226562 19.113281 7.386719 C 19.113281 6.230469 20.054688 5.289062 21.210938 5.289062 C 22.367188 5.289062 23.308594 6.230469 23.308594 7.386719 C 23.308594 8.273438 22.757812 9.035156 21.984375 9.339844 L 21.984375 16.847656 L 14.902344 20.933594 L 14.902344 28.351562 C 15.640625 28.679688 16.15625 29.417969 16.15625 30.277344 C 16.15625 31.433594 15.222656 32.375 14.058594 32.375 C 12.902344 32.375 11.964844 31.433594 11.964844 30.277344 C 11.964844 29.417969 12.484375 28.679688 13.222656 28.351562 L 13.222656 20.929688 L 7.023438 17.351562 L 0.65625 21.023438 L 0.65625 27.203125 L 6.792969 23.660156 L 6.785156 23.519531 C 6.785156 22.363281 7.726562 21.421875 8.886719 21.421875 C 10.042969 21.421875 10.984375 22.363281 10.984375 23.519531 C 10.984375 24.679688 10.042969 25.621094 8.886719 25.621094 C 8.382812 25.621094 7.921875 25.445312 7.566406 25.152344 L 0.65625 29.140625 L 0.65625 36.113281 L 7.023438 39.785156 L 12.292969 36.746094 L 7.449219 33.953125 C 7.074219 34.300781 6.570312 34.507812 6.019531 34.507812 C 4.863281 34.507812 3.921875 33.566406 3.921875 32.410156 C 3.921875 31.253906 4.863281 30.3125 6.019531 30.3125 C 7.175781 30.3125 8.109375 31.246094 8.117188 32.398438 L 21.984375 40.402344 L 21.984375 49.144531 C 22.753906 49.457031 23.296875 50.210938 23.296875 51.089844 C 23.296875 52.246094 22.355469 53.1875 21.199219 53.1875 C 20.039062 53.1875 19.097656 52.246094 19.097656 51.089844 C 19.097656 50.253906 19.59375 49.527344 20.304688 49.191406 L 20.304688 41.371094 L 13.976562 37.714844 L 7.742188 41.320312 L 7.742188 48.703125 L 13.222656 51.871094 L 13.222656 44.863281 C 12.484375 44.542969 11.964844 43.804688 11.964844 42.945312 C 11.964844 41.789062 12.90625 40.847656 14.066406 40.847656 C 15.222656 40.847656 16.164062 41.789062 16.164062 42.945312 C 16.164062 43.804688 15.640625 44.550781 14.902344 44.871094 L 14.902344 52.839844 L 21.261719 56.511719 L 27.066406 53.160156 Z M 27.066406 35.898438 " fill-opacity="1" fill-rule="evenodd"/></g><g clip-path="url(#f88f065633)"><path fill="#1e3a8a" d="M 28.75 35.898438 L 28.75 53.160156 L 34.550781 56.511719 L 40.914062 52.839844 L 40.914062 44.871094 C 40.167969 44.550781 39.652344 43.804688 39.652344 42.945312 C 39.652344 41.789062 40.585938 40.847656 41.746094 40.847656 C 42.910156 40.847656 43.84375 41.789062 43.84375 42.945312 C 43.84375 43.804688 43.328125 44.542969 42.59375 44.863281 L 42.59375 51.871094 L 48.074219 48.703125 L 48.074219 41.320312 L 41.84375 37.714844 L 35.511719 41.371094 L 35.511719 49.191406 C 36.222656 49.527344 36.710938 50.253906 36.710938 51.089844 C 36.710938 52.246094 35.777344 53.1875 34.613281 53.1875 C 33.453125 53.1875 32.519531 52.246094 32.519531 51.089844 C 32.519531 50.210938 33.0625 49.457031 33.832031 49.144531 L 33.832031 40.402344 L 47.699219 32.398438 C 47.707031 31.246094 48.640625 30.3125 49.789062 30.3125 C 50.953125 30.3125 51.886719 31.253906 51.886719 32.410156 C 51.886719 33.566406 50.953125 34.507812 49.789062 34.507812 C 49.238281 34.507812 48.746094 34.300781 48.367188 33.953125 L 43.523438 36.746094 L 48.785156 39.785156 L 55.160156 36.113281 L 55.160156 29.140625 L 48.25 25.152344 C 47.886719 25.445312 47.425781 25.621094 46.929688 25.621094 C 45.773438 25.621094 44.832031 24.679688 44.832031 23.519531 C 44.832031 22.363281 45.773438 21.421875 46.929688 21.421875 C 48.089844 21.421875 49.03125 22.363281 49.03125 23.519531 L 49.023438 23.660156 L 55.160156 27.203125 L 55.160156 21.023438 L 48.785156 17.351562 L 42.59375 20.929688 L 42.59375 28.351562 C 43.332031 28.679688 43.851562 29.417969 43.851562 30.277344 C 43.851562 31.433594 42.910156 32.375 41.75 32.375 C 40.59375 32.375 39.652344 31.433594 39.652344 30.277344 C 39.652344 29.417969 40.167969 28.679688 40.914062 28.351562 L 40.914062 20.933594 L 33.832031 16.847656 L 33.832031 9.339844 C 33.058594 9.035156 32.507812 8.273438 32.507812 7.386719 C 32.507812 6.230469 33.449219 5.289062 34.605469 5.289062 C 35.761719 5.289062 36.703125 6.230469 36.703125 7.386719 C 36.703125 8.226562 36.214844 8.941406 35.511719 9.277344 L 35.511719 15.878906 L 41.746094 19.476562 L 48.074219 15.816406 L 48.074219 8.195312 L 42.59375 5.03125 L 42.59375 11.109375 C 43.304688 11.445312 43.800781 12.171875 43.800781 13.015625 C 43.800781 14.171875 42.859375 15.113281 41.703125 15.113281 C 40.546875 15.113281 39.605469 14.171875 39.605469 13.015625 C 39.605469 12.136719 40.148438 11.382812 40.914062 11.070312 L 40.914062 4.0625 L 34.703125 0.480469 L 28.75 3.917969 L 28.75 19.855469 L 35.511719 23.765625 L 35.511719 31.992188 Z M 28.75 35.898438 " fill-opacity="1" fill-rule="evenodd"/></g><g clip-path="url(#72ca4227a9)"><g transform="matrix(1, 0, 0, 1, 62, 37)"><g clip-path="url(#da15eec1a8)"><g fill="#008cba" fill-opacity="1"><g transform="translate(0.905564, 15.68045)"><g><path d="M 13.5 0 C 14.625 0 15.582031 -0.394531 16.375 -1.1875 C 17.175781 -1.988281 17.578125 -2.953125 17.578125 -4.078125 L 17.578125 -9.0625 C 17.578125 -10.1875 17.175781 -11.144531 16.375 -11.9375 C 15.582031 -12.738281 14.625 -13.140625 13.5 -13.140625 L 1.828125 -13.140625 L 1.828125 0 Z M 13.5 -1.625 L 3.453125 -1.625 L 3.453125 -11.515625 L 13.5 -11.515625 C 14.175781 -11.515625 14.753906 -11.273438 15.234375 -10.796875 C 15.710938 -10.316406 15.953125 -9.738281 15.953125 -9.0625 L 15.953125 -4.078125 C 15.953125 -3.398438 15.710938 -2.820312 15.234375 -2.34375 C 14.753906 -1.863281 14.175781 -1.625 13.5 -1.625 Z M 13.5 -1.625 "/></g></g></g><g fill="#008cba" fill-opacity="1"><g transform="translate(22.753222, 15.68045)"><g><path d="M 3.453125 0 L 3.453125 -13.125 L 1.828125 -13.125 L 1.828125 0 Z M 3.453125 0 "/></g></g></g><g fill="#008cba" fill-opacity="1"><g transform="translate(30.948097, 15.68045)"><g><path d="M 13.046875 0 C 14.140625 0 15.101562 -0.394531 15.9375 -1.1875 C 16.71875 -2 17.113281 -2.960938 17.125 -4.078125 L 17.125 -5.46875 C 17.125 -5.820312 17 -6.125 16.75 -6.375 C 16.5 -6.625 16.195312 -6.75 15.84375 -6.75 L 9.25 -6.75 L 9.25 -5.125 L 15.484375 -5.125 L 15.484375 -4.078125 C 15.484375 -3.421875 15.25 -2.84375 14.78125 -2.34375 C 14.28125 -1.863281 13.703125 -1.625 13.046875 -1.625 L 5.453125 -1.625 C 4.773438 -1.625 4.195312 -1.863281 3.71875 -2.34375 C 3.238281 -2.820312 3 -3.398438 3 -4.078125 L 3 -9.0625 C 3 -9.738281 3.238281 -10.316406 3.71875 -10.796875 C 4.195312 -11.273438 4.773438 -11.515625 5.453125 -11.515625 L 13.046875 -11.515625 C 13.722656 -11.515625 14.296875 -11.273438 14.765625 -10.796875 C 15.242188 -10.316406 15.484375 -9.738281 15.484375 -9.0625 L 17.125 -9.0625 C 17.125 -10.1875 16.722656 -11.144531 15.921875 -11.9375 C 15.128906 -12.738281 14.171875 -13.140625 13.046875 -13.140625 L 5.453125 -13.140625 C 4.328125 -13.140625 3.363281 -12.738281 2.5625 -11.9375 C 1.769531 -11.144531 1.375 -10.1875 1.375 -9.0625 L 1.375 -4.078125 C 1.375 -2.953125 1.769531 -1.988281 2.5625 -1.1875 C 3.363281 -0.394531 4.328125 0 5.453125 0 Z M 13.046875 0 "/></g></g></g><g fill="#008cba" fill-opacity="1"><g transform="translate(52.338222, 15.68045)"><g><path d="M 3.453125 0 L 3.453125 -13.125 L 1.828125 -13.125 L 1.828125 0 Z M 3.453125 0 "/></g></g></g><g fill="#008cba" fill-opacity="1"><g transform="translate(60.533096, 15.68045)"><g><path d="M 8.375 0 L 6.734375 0 L 6.734375 -11.5 L 0.28125 -11.5 L 0.28125 -13.125 L 14.828125 -13.125 L 14.828125 -11.5 L 8.375 -11.5 Z M 8.375 0 "/></g></g></g><g fill="#008cba" fill-opacity="1"><g transform="translate(78.537477, 15.68045)"><g><path d="M 18.890625 0 L 16.921875 0 L 14.90625 -2.96875 L 4.234375 -2.96875 L 2.25 0 L 0.28125 0 L 9.140625 -13.125 L 10 -13.125 Z M 13.8125 -4.59375 L 9.578125 -10.859375 L 5.34375 -4.59375 Z M 13.8125 -4.59375 "/></g></g></g><g fill="#008cba" fill-opacity="1"><g transform="translate(100.595606, 15.68045)"><g><path d="M 14.078125 0 L 14.078125 -1.625 L 3.453125 -1.625 L 3.453125 -13.140625 L 1.828125 -13.140625 L 1.828125 0 Z M 14.078125 0 "/></g></g></g><g fill="#008cba" fill-opacity="1"><g transform="translate(118.21566, 15.68045)"><g/></g></g><g fill="#008cba" fill-opacity="1"><g transform="translate(125.769987, 15.68045)"><g><path d="M 14.140625 0 L 4.359375 0 C 3.535156 0 2.832031 -0.289062 2.25 -0.875 C 1.664062 -1.457031 1.375 -2.160156 1.375 -2.984375 L 3 -2.984375 C 3 -2.609375 3.128906 -2.285156 3.390625 -2.015625 C 3.660156 -1.753906 3.984375 -1.625 4.359375 -1.625 L 14.140625 -1.625 C 14.503906 -1.625 14.816406 -1.753906 15.078125 -2.015625 C 15.347656 -2.285156 15.484375 -2.609375 15.484375 -2.984375 L 15.484375 -4.390625 C 15.484375 -4.765625 15.347656 -5.082031 15.078125 -5.34375 C 14.816406 -5.613281 14.503906 -5.75 14.140625 -5.75 L 4.359375 -5.75 C 3.535156 -5.75 2.832031 -6.039062 2.25 -6.625 C 1.664062 -7.207031 1.375 -7.910156 1.375 -8.734375 L 1.375 -10.140625 C 1.375 -10.960938 1.664062 -11.664062 2.25 -12.25 C 2.832031 -12.832031 3.535156 -13.125 4.359375 -13.125 L 14.140625 -13.125 C 14.960938 -13.125 15.664062 -12.832031 16.25 -12.25 C 16.832031 -11.664062 17.125 -10.960938 17.125 -10.140625 L 15.484375 -10.140625 C 15.484375 -10.515625 15.347656 -10.832031 15.078125 -11.09375 C 14.816406 -11.363281 14.503906 -11.5 14.140625 -11.5 L 4.359375 -11.5 C 3.984375 -11.5 3.660156 -11.363281 3.390625 -11.09375 C 3.128906 -10.832031 3 -10.515625 3 -10.140625 L 3 -8.734375 C 3 -8.359375 3.128906 -8.035156 3.390625 -7.765625 C 3.660156 -7.503906 3.984375 -7.375 4.359375 -7.375 L 14.140625 -7.375 C 14.960938 -7.375 15.664062 -7.082031 16.25 -6.5 C 16.832031 -5.914062 17.125 -5.210938 17.125 -4.390625 L 17.125 -2.984375 C 17.125 -2.160156 16.832031 -1.457031 16.25 -0.875 C 15.664062 -0.289062 14.960938 0 14.140625 0 Z M 14.140625 0 "/></g></g></g><g fill="#008cba" fill-opacity="1"><g transform="translate(147.160112, 15.68045)"><g><path d="M 13.046875 0 C 14.171875 0 15.128906 -0.394531 15.921875 -1.1875 C 16.722656 -1.988281 17.125 -2.953125 17.125 -4.078125 L 17.125 -9.0625 C 17.125 -10.1875 16.722656 -11.144531 15.921875 -11.9375 C 15.128906 -12.738281 14.171875 -13.140625 13.046875 -13.140625 L 5.453125 -13.140625 C 4.328125 -13.140625 3.363281 -12.738281 2.5625 -11.9375 C 1.769531 -11.144531 1.375 -10.1875 1.375 -9.0625 L 1.375 -4.078125 C 1.375 -2.953125 1.769531 -1.988281 2.5625 -1.1875 C 3.363281 -0.394531 4.328125 0 5.453125 0 Z M 13.046875 -1.625 L 5.453125 -1.625 C 4.773438 -1.625 4.195312 -1.863281 3.71875 -2.34375 C 3.238281 -2.820312 3 -3.398438 3 -4.078125 L 3 -9.0625 C 3 -9.738281 3.238281 -10.316406 3.71875 -10.796875 C 4.195312 -11.273438 4.773438 -11.515625 5.453125 -11.515625 L 13.046875 -11.515625 C 13.722656 -11.515625 14.296875 -11.273438 14.765625 -10.796875 C 15.242188 -10.316406 15.484375 -9.738281 15.484375 -9.0625 L 15.484375 -4.078125 C 15.484375 -3.398438 15.242188 -2.820312 14.765625 -2.34375 C 14.296875 -1.863281 13.722656 -1.625 13.046875 -1.625 Z M 13.046875 -1.625 "/></g></g></g><g fill="#008cba" fill-opacity="1"><g transform="translate(168.550238, 15.68045)"><g><path d="M 14.078125 0 L 14.078125 -1.625 L 3.453125 -1.625 L 3.453125 -13.140625 L 1.828125 -13.140625 L 1.828125 0 Z M 14.078125 0 "/></g></g></g><g fill="#008cba" fill-opacity="1"><g transform="translate(186.170291, 15.68045)"><g><path d="M 13.046875 0 C 14.171875 0 15.128906 -0.394531 15.921875 -1.1875 C 16.722656 -1.988281 17.125 -2.953125 17.125 -4.078125 L 17.125 -13.140625 L 15.484375 -13.140625 L 15.484375 -4.078125 C 15.484375 -3.398438 15.242188 -2.820312 14.765625 -2.34375 C 14.296875 -1.863281 13.722656 -1.625 13.046875 -1.625 L 5.453125 -1.625 C 4.773438 -1.625 4.195312 -1.863281 3.71875 -2.34375 C 3.238281 -2.820312 3 -3.398438 3 -4.078125 L 3 -13.140625 L 1.375 -13.140625 L 1.375 -4.078125 C 1.375 -2.953125 1.769531 -1.988281 2.5625 -1.1875 C 3.363281 -0.394531 4.328125 0 5.453125 0 Z M 13.046875 0 "/></g></g></g><g fill="#008cba" fill-opacity="1"><g transform="translate(207.560416, 15.68045)"><g><path d="M 8.375 0 L 6.734375 0 L 6.734375 -11.5 L 0.28125 -11.5 L 0.28125 -13.125 L 14.828125 -13.125 L 14.828125 -11.5 L 8.375 -11.5 Z M 8.375 0 "/></g></g></g><g fill="#008cba" fill-opacity="1"><g transform="translate(225.564797, 15.68045)"><g><path d="M 3.453125 0 L 3.453125 -13.125 L 1.828125 -13.125 L 1.828125 0 Z M 3.453125 0 "/></g></g></g><g fill="#008cba" fill-opacity="1"><g transform="translate(233.759671, 15.68045)"><g><path d="M 13.046875 0 C 14.171875 0 15.128906 -0.394531 15.921875 -1.1875 C 16.722656 -1.988281 17.125 -2.953125 17.125 -4.078125 L 17.125 -9.0625 C 17.125 -10.1875 16.722656 -11.144531 15.921875 -11.9375 C 15.128906 -12.738281 14.171875 -13.140625 13.046875 -13.140625 L 5.453125 -13.140625 C 4.328125 -13.140625 3.363281 -12.738281 2.5625 -11.9375 C 1.769531 -11.144531 1.375 -10.1875 1.375 -9.0625 L 1.375 -4.078125 C 1.375 -2.953125 1.769531 -1.988281 2.5625 -1.1875 C 3.363281 -0.394531 4.328125 0 5.453125 0 Z M 13.046875 -1.625 L 5.453125 -1.625 C 4.773438 -1.625 4.195312 -1.863281 3.71875 -2.34375 C 3.238281 -2.820312 3 -3.398438 3 -4.078125 L 3 -9.0625 C 3 -9.738281 3.238281 -10.316406 3.71875 -10.796875 C 4.195312 -11.273438 4.773438 -11.515625 5.453125 -11.515625 L 13.046875 -11.515625 C 13.722656 -11.515625 14.296875 -11.273438 14.765625 -10.796875 C 15.242188 -10.316406 15.484375 -9.738281 15.484375 -9.0625 L 15.484375 -4.078125 C 15.484375 -3.398438 15.242188 -2.820312 14.765625 -2.34375 C 14.296875 -1.863281 13.722656 -1.625 13.046875 -1.625 Z M 13.046875 -1.625 "/></g></g></g><g fill="#008cba" fill-opacity="1"><g transform="translate(255.149808, 15.68045)"><g><path d="M 17.578125 0 L 16.46875 0 L 3.453125 -10.609375 L 3.453125 0 L 1.828125 0 L 1.828125 -13.125 L 2.9375 -13.125 L 15.953125 -2.53125 L 15.953125 -13.125 L 17.578125 -13.125 Z M 17.578125 0 "/></g></g></g><g fill="#008cba" fill-opacity="1"><g transform="translate(277.454987, 15.68045)"><g><path d="M 14.140625 0 L 4.359375 0 C 3.535156 0 2.832031 -0.289062 2.25 -0.875 C 1.664062 -1.457031 1.375 -2.160156 1.375 -2.984375 L 3 -2.984375 C 3 -2.609375 3.128906 -2.285156 3.390625 -2.015625 C 3.660156 -1.753906 3.984375 -1.625 4.359375 -1.625 L 14.140625 -1.625 C 14.503906 -1.625 14.816406 -1.753906 15.078125 -2.015625 C 15.347656 -2.285156 15.484375 -2.609375 15.484375 -2.984375 L 15.484375 -4.390625 C 15.484375 -4.765625 15.347656 -5.082031 15.078125 -5.34375 C 14.816406 -5.613281 14.503906 -5.75 14.140625 -5.75 L 4.359375 -5.75 C 3.535156 -5.75 2.832031 -6.039062 2.25 -6.625 C 1.664062 -7.207031 1.375 -7.910156 1.375 -8.734375 L 1.375 -10.140625 C 1.375 -10.960938 1.664062 -11.664062 2.25 -12.25 C 2.832031 -12.832031 3.535156 -13.125 4.359375 -13.125 L 14.140625 -13.125 C 14.960938 -13.125 15.664062 -12.832031 16.25 -12.25 C 16.832031 -11.664062 17.125 -10.960938 17.125 -10.140625 L 15.484375 -10.140625 C 15.484375 -10.515625 15.347656 -10.832031 15.078125 -11.09375 C 14.816406 -11.363281 14.503906 -11.5 14.140625 -11.5 L 4.359375 -11.5 C 3.984375 -11.5 3.660156 -11.363281 3.390625 -11.09375 C 3.128906 -10.832031 3 -10.515625 3 -10.140625 L 3 -8.734375 C 3 -8.359375 3.128906 -8.035156 3.390625 -7.765625 C 3.660156 -7.503906 3.984375 -7.375 4.359375 -7.375 L 14.140625 -7.375 C 14.960938 -7.375 15.664062 -7.082031 16.25 -6.5 C 16.832031 -5.914062 17.125 -5.210938 17.125 -4.390625 L 17.125 -2.984375 C 17.125 -2.160156 16.832031 -1.457031 16.25 -0.875 C 15.664062 -0.289062 14.960938 0 14.140625 0 Z M 14.140625 0 "/></g></g></g></g></g></g><g clip-path="url(#27c4f8f1f4)"><g transform="matrix(1, 0, 0, 1, 61, 1)"><g clip-path="url(#3b8b84358a)"><g fill="#ffffff" fill-opacity="1"><g transform="translate(0.658799, 32.847713)"><g><path d="M 8.078125 0 L 3.78125 0 L 3.78125 -27.09375 L 33.90625 -27.09375 L 33.90625 -22.796875 L 8.078125 -22.796875 L 8.078125 -15.703125 L 30.84375 -15.703125 L 30.84375 -11.390625 L 8.078125 -11.390625 Z M 8.078125 0 "/></g></g><g transform="translate(37.398424, 32.847713)"><g><path d="M 28.578125 0 L 28.578125 -4.3125 L 8.078125 -4.3125 L 8.078125 -27.09375 L 3.78125 -27.09375 L 3.78125 0 Z M 28.578125 0 "/></g></g><g transform="translate(67.300135, 32.847713)"><g><path d="M 26.5 0 C 28.882812 0 30.914062 -0.835938 32.59375 -2.515625 C 34.28125 -4.203125 35.125 -6.234375 35.125 -8.609375 L 35.125 -18.5 C 35.125 -20.863281 34.28125 -22.882812 32.59375 -24.5625 C 30.914062 -26.25 28.882812 -27.09375 26.5 -27.09375 L 11.453125 -27.09375 C 9.066406 -27.09375 7.03125 -26.25 5.34375 -24.5625 C 3.664062 -22.882812 2.828125 -20.863281 2.828125 -18.5 L 2.828125 -8.609375 C 2.828125 -6.234375 3.664062 -4.203125 5.34375 -2.515625 C 7.03125 -0.835938 9.066406 0 11.453125 0 Z M 26.5 -4.3125 L 11.453125 -4.3125 C 10.253906 -4.3125 9.234375 -4.726562 8.390625 -5.5625 C 7.554688 -6.394531 7.140625 -7.410156 7.140625 -8.609375 L 7.140625 -18.5 C 7.140625 -19.675781 7.554688 -20.6875 8.390625 -21.53125 C 9.234375 -22.375 10.253906 -22.796875 11.453125 -22.796875 L 26.5 -22.796875 C 27.6875 -22.796875 28.703125 -22.375 29.546875 -21.53125 C 30.390625 -20.6875 30.8125 -19.675781 30.8125 -18.5 L 30.8125 -8.609375 C 30.8125 -7.410156 30.390625 -6.394531 29.546875 -5.5625 C 28.703125 -4.726562 27.6875 -4.3125 26.5 -4.3125 Z M 26.5 -4.3125 "/></g></g></g><g fill="#ffffff" fill-opacity="1"><g transform="translate(102.415279, 32.847713)"><g><path d="M 38.796875 0 L 36.09375 0 L 26.015625 -20.140625 L 15.921875 0 L 13.234375 0 L 0.5625 -27.09375 L 5.3125 -27.09375 L 14.65625 -7.078125 L 24.6875 -27.09375 L 27.359375 -27.09375 L 37.359375 -7.078125 L 46.734375 -27.09375 L 51.5 -27.09375 Z M 38.796875 0 "/></g></g><g transform="translate(154.474101, 32.847713)"><g><path d="M 17.140625 0 L 12.828125 0 L 12.828125 -22.796875 L 0.5625 -22.796875 L 0.5625 -27.09375 L 29.40625 -27.09375 L 29.40625 -22.796875 L 17.140625 -22.796875 Z M 17.140625 0 "/></g></g><g transform="translate(184.451368, 32.847713)"><g><path d="M 33.90625 0 L 3.78125 0 L 3.78125 -27.09375 L 33.90625 -27.09375 L 33.90625 -22.796875 L 8.078125 -22.796875 L 8.078125 -15.703125 L 30.84375 -15.703125 L 30.84375 -11.390625 L 8.078125 -11.390625 L 8.078125 -4.3125 L 33.90625 -4.3125 Z M 33.90625 0 "/></g></g><g transform="translate(221.190993, 32.847713)"><g><path d="M 26.5 0 C 28.882812 0 30.914062 -0.835938 32.59375 -2.515625 C 34.28125 -4.203125 35.125 -6.234375 35.125 -8.609375 L 30.8125 -8.609375 C 30.8125 -7.410156 30.390625 -6.394531 29.546875 -5.5625 C 28.703125 -4.726562 27.6875 -4.3125 26.5 -4.3125 L 11.453125 -4.3125 C 10.253906 -4.3125 9.234375 -4.726562 8.390625 -5.5625 C 7.554688 -6.394531 7.140625 -7.410156 7.140625 -8.609375 L 7.140625 -18.5 C 7.140625 -19.675781 7.554688 -20.6875 8.390625 -21.53125 C 9.234375 -22.375 10.253906 -22.796875 11.453125 -22.796875 L 26.5 -22.796875 C 27.6875 -22.796875 28.703125 -22.375 29.546875 -21.53125 C 30.390625 -20.6875 30.8125 -19.675781 30.8125 -18.5 L 35.125 -18.5 C 35.125 -20.863281 34.28125 -22.882812 32.59375 -24.5625 C 30.914062 -26.25 28.882812 -27.09375 26.5 -27.09375 L 11.453125 -27.09375 C 9.066406 -27.09375 7.03125 -26.25 5.34375 -24.5625 C 3.664062 -22.882812 2.828125 -20.863281 2.828125 -18.5 L 2.828125 -8.609375 C 2.828125 -6.234375 3.664062 -4.203125 5.34375 -2.515625 C 7.03125 -0.835938 9.066406 0 11.453125 0 Z M 26.5 0 "/></g></g></g><g fill="#ffffff" fill-opacity="1"><g transform="translate(259.139537, 32.847713)"><g><path d="M 35.1875 0 L 30.890625 0 L 30.890625 -11.40625 L 8.078125 -11.40625 L 8.078125 0 L 3.78125 0 L 3.78125 -27.09375 L 8.078125 -27.09375 L 8.078125 -15.703125 L 30.890625 -15.703125 L 30.890625 -27.09375 L 35.1875 -27.09375 Z M 35.1875 0 "/></g></g></g><g fill="#ffffff" fill-opacity="1"><g transform="translate(298.109228, 32.847713)"><g/></g></g></g></g></g></g></g></svg>