<svg xmlns="http://www.w3.org/2000/svg" xmlns:xlink="http://www.w3.org/1999/xlink" width="512" zoomAndPan="magnify" viewBox="0 0 384 383.999986" height="512" preserveAspectRatio="xMidYMid meet" version="1.0"><defs><g/><clipPath id="fcb96ea7dd"><path d="M 33 33 L 351 33 L 351 351 L 33 351 Z M 33 33 " clip-rule="nonzero"/></clipPath><clipPath id="0f198af9d5"><path d="M 192 33 C 104.1875 33 33 104.1875 33 192 C 33 279.8125 104.1875 351 192 351 C 279.8125 351 351 279.8125 351 192 C 351 104.1875 279.8125 33 192 33 Z M 192 33 " clip-rule="nonzero"/></clipPath><clipPath id="d2ad4d3870"><path d="M 57.066406 53.25 L 188 53.25 L 188 330.75 L 57.066406 330.75 Z M 57.066406 53.25 " clip-rule="nonzero"/></clipPath><clipPath id="89737b474a"><path d="M 196 53.25 L 327 53.25 L 327 330.75 L 196 330.75 Z M 196 53.25 " clip-rule="nonzero"/></clipPath><clipPath id="e0637523d8"><rect x="0" width="384" y="0" height="384"/></clipPath></defs><g><g clip-path="url(#e0637523d8)"><g clip-path="url(#fcb96ea7dd)"><g clip-path="url(#0f198af9d5)"><path stroke-linecap="butt" transform="matrix(0.375, 0, 0, 0.375, 33.000005, 32.999997)" fill="none" stroke-linejoin="miter" d="M 423.999989 0.00000696667 C 189.833322 0.00000696667 -0.0000122333 189.833341 -0.0000122333 424.000008 C -0.0000122333 658.166675 189.833322 848.000009 423.999989 848.000009 C 658.166656 848.000009 847.99999 658.166675 847.99999 424.000008 C 847.99999 189.833341 658.166656 0.00000696667 423.999989 0.00000696667 Z M 423.999989 0.00000696667 " stroke="#00a8e0" stroke-width="64" stroke-opacity="1" stroke-miterlimit="4"/></g></g><path fill="#00a8e0" d="M 162.671875 204.515625 L 191.980469 221.429688 L 221.324219 204.515625 L 221.324219 173.375 L 191.980469 156.425781 L 162.671875 173.375 Z M 162.671875 204.515625 " fill-opacity="1" fill-rule="evenodd"/><g clip-path="url(#d2ad4d3870)"><path fill="#00a8e0" d="M 187.839844 228.644531 L 154.351562 209.3125 L 154.351562 168.578125 L 187.839844 149.207031 L 187.839844 70.289062 L 158.320312 53.269531 L 127.597656 71.015625 L 127.597656 105.710938 C 131.394531 107.261719 134.050781 110.992188 134.050781 115.34375 C 134.050781 121.074219 129.390625 125.734375 123.660156 125.734375 C 117.929688 125.734375 113.269531 121.074219 113.269531 115.34375 C 113.269531 111.164062 115.71875 107.574219 119.277344 105.917969 L 119.277344 75.8125 L 92.140625 91.488281 L 92.140625 129.21875 L 123.488281 147.34375 L 154.351562 129.53125 L 154.351562 96.835938 C 150.863281 95.179688 148.449219 91.625 148.449219 87.480469 C 148.449219 81.75 153.109375 77.089844 158.839844 77.089844 C 164.570312 77.089844 169.230469 81.75 169.230469 87.480469 C 169.230469 91.867188 166.503906 95.628906 162.671875 97.148438 L 162.671875 134.328125 L 127.597656 154.558594 L 127.597656 191.292969 C 131.253906 192.914062 133.808594 196.574219 133.808594 200.820312 C 133.808594 206.550781 129.183594 211.210938 123.417969 211.210938 C 117.6875 211.210938 113.0625 206.550781 113.0625 200.820312 C 113.0625 196.574219 115.617188 192.914062 119.277344 191.292969 L 119.277344 154.527344 L 88.585938 136.816406 L 57.066406 155.007812 L 57.066406 185.597656 L 87.445312 168.058594 L 87.410156 167.367188 C 87.410156 161.636719 92.070312 156.976562 97.800781 156.976562 C 103.535156 156.976562 108.195312 161.636719 108.195312 167.367188 C 108.195312 173.097656 103.535156 177.757812 97.800781 177.757812 C 95.316406 177.757812 93.039062 176.894531 91.277344 175.445312 L 57.066406 195.191406 L 57.066406 229.714844 L 88.585938 247.910156 L 114.683594 232.859375 L 90.691406 219.015625 C 88.828125 220.742188 86.339844 221.777344 83.613281 221.777344 C 77.882812 221.777344 73.222656 217.117188 73.222656 211.382812 C 73.222656 205.652344 77.882812 200.992188 83.613281 200.992188 C 89.34375 200.992188 93.96875 205.621094 94.003906 211.316406 L 162.671875 250.949219 L 162.671875 294.238281 C 166.46875 295.792969 169.160156 299.519531 169.160156 303.871094 C 169.160156 309.601562 164.5 314.261719 158.769531 314.261719 C 153.039062 314.261719 148.378906 309.601562 148.378906 303.871094 C 148.378906 299.730469 150.828125 296.136719 154.351562 294.480469 L 154.351562 255.746094 L 123.003906 237.65625 L 92.140625 255.503906 L 92.140625 292.066406 L 119.277344 307.738281 L 119.277344 273.042969 C 115.617188 271.453125 113.0625 267.796875 113.0625 263.546875 C 113.0625 257.816406 117.722656 253.15625 123.453125 253.15625 C 129.183594 253.15625 133.84375 257.816406 133.84375 263.546875 C 133.84375 267.796875 131.253906 271.488281 127.597656 273.078125 L 127.597656 312.535156 L 159.082031 330.730469 L 187.839844 314.125 Z M 187.839844 228.644531 " fill-opacity="1" fill-rule="evenodd"/></g><g clip-path="url(#89737b474a)"><path fill="#1e3a8a" d="M 196.160156 228.644531 L 196.160156 314.125 L 224.882812 330.730469 L 256.402344 312.535156 L 256.402344 273.078125 C 252.707031 271.488281 250.152344 267.796875 250.152344 263.546875 C 250.152344 257.816406 254.777344 253.15625 260.507812 253.15625 C 266.273438 253.15625 270.898438 257.816406 270.898438 263.546875 C 270.898438 267.796875 268.34375 271.453125 264.71875 273.042969 L 264.71875 307.738281 L 291.855469 292.066406 L 291.855469 255.503906 L 260.992188 237.65625 L 229.644531 255.746094 L 229.644531 294.480469 C 233.167969 296.136719 235.582031 299.730469 235.582031 303.871094 C 235.582031 309.601562 230.957031 314.261719 225.191406 314.261719 C 219.460938 314.261719 214.835938 309.601562 214.835938 303.871094 C 214.835938 299.519531 217.527344 295.792969 221.324219 294.238281 L 221.324219 250.949219 L 289.992188 211.316406 C 290.027344 205.621094 294.652344 200.992188 300.347656 200.992188 C 306.113281 200.992188 310.738281 205.652344 310.738281 211.382812 C 310.738281 217.117188 306.113281 221.777344 300.347656 221.777344 C 297.621094 221.777344 295.167969 220.742188 293.304688 219.015625 L 269.3125 232.859375 L 295.378906 247.910156 L 326.929688 229.714844 L 326.929688 195.191406 L 292.71875 175.445312 C 290.921875 176.894531 288.644531 177.757812 286.195312 177.757812 C 280.464844 177.757812 275.800781 173.097656 275.800781 167.367188 C 275.800781 161.636719 280.464844 156.976562 286.195312 156.976562 C 291.925781 156.976562 296.585938 161.636719 296.585938 167.367188 L 296.550781 168.058594 L 326.929688 185.597656 L 326.929688 155.007812 L 295.378906 136.816406 L 264.71875 154.527344 L 264.71875 191.292969 C 268.378906 192.914062 270.933594 196.574219 270.933594 200.820312 C 270.933594 206.550781 266.273438 211.210938 260.542969 211.210938 C 254.8125 211.210938 250.152344 206.550781 250.152344 200.820312 C 250.152344 196.574219 252.707031 192.914062 256.402344 191.292969 L 256.402344 154.558594 L 221.324219 134.328125 L 221.324219 97.148438 C 217.492188 95.628906 214.765625 91.867188 214.765625 87.480469 C 214.765625 81.75 219.425781 77.089844 225.15625 77.089844 C 230.886719 77.089844 235.550781 81.75 235.550781 87.480469 C 235.550781 91.625 233.132812 95.179688 229.644531 96.835938 L 229.644531 129.53125 L 260.507812 147.34375 L 291.855469 129.21875 L 291.855469 91.488281 L 264.71875 75.8125 L 264.71875 105.917969 C 268.242188 107.574219 270.691406 111.164062 270.691406 115.34375 C 270.691406 121.074219 266.03125 125.734375 260.300781 125.734375 C 254.570312 125.734375 249.910156 121.074219 249.910156 115.34375 C 249.910156 110.992188 252.601562 107.261719 256.402344 105.710938 L 256.402344 71.015625 L 225.640625 53.269531 L 196.160156 70.289062 L 196.160156 149.207031 L 229.644531 168.578125 L 229.644531 209.3125 Z M 196.160156 228.644531 " fill-opacity="1" fill-rule="evenodd"/></g><g fill="#ffffff" fill-opacity="1"><g transform="translate(245.662473, 324.987454)"><g><path d="M 11.5 0 L 5.375 0 L 5.375 -38.515625 L 48.203125 -38.515625 L 48.203125 -32.421875 L 11.5 -32.421875 L 11.5 -22.3125 L 43.859375 -22.3125 L 43.859375 -16.1875 L 11.5 -16.1875 Z M 11.5 0 "/></g></g></g><g fill="#ffffff" fill-opacity="1"><g transform="translate(297.892646, 324.987454)"><g><path d="M 24.359375 0 L 18.234375 0 L 18.234375 -32.421875 L 0.8125 -32.421875 L 0.8125 -38.515625 L 41.8125 -38.515625 L 41.8125 -32.421875 L 24.359375 -32.421875 Z M 24.359375 0 "/></g></g></g></g></g></svg>